<svg height="1024" node-id="1" sillyvg="true" template-height="1024" template-width="1024" version="1.1" viewBox="0 0 1024 1024" width="1024" xmlns="http://www.w3.org/2000/svg" xmlns:xlink="http://www.w3.org/1999/xlink"><defs node-id="91"></defs><g node-id="271"><path d="M 821.37 242.14 L 773.80 284.31 C 771.15 286.65 767.11 286.41 764.76 283.77 C 762.42 281.12 762.66 277.07 765.31 274.73 L 813.49 232.00 C 810.09 227.82 806.49 223.60 802.66 219.30 C 643.42 42.54 466.87 112.08 341.37 203.69 C 215.68 295.45 283.71 462.10 283.71 462.10 C 283.71 462.10 326.25 517.10 165.82 598.10 C 98.14 632.19 76.13 698.35 85.17 744.51 C 86.59 751.66 88.69 758.67 91.42 765.43 L 130.00 749.79 C 133.28 748.46 137.01 750.04 138.34 753.32 C 139.67 756.60 138.09 760.33 134.81 761.66 L 96.75 777.08 C 121.18 824.17 175.82 861.58 236.65 861.58 L 751.65 842.58 C 751.65 842.58 906.00 779.36 807.55 623.76 C 713.45 475.00 940.22 402.64 821.37 242.14 Z" fill="#e61f19" fill-opacity="0.2" fill-rule="nonzero" group-id="1" node-id="95" stroke="none" target-height="819.04004" target-width="864.08997" target-x="76.13" target-y="42.54"></path></g><path d="M 880.00 848.79 L 659.29 848.79 C 654.66 848.79 651.44 843.96 653.03 839.40 L 707.14 684.00 C 708.03 681.29 710.55 679.45 713.40 679.41 L 934.09 679.41 C 938.72 679.41 941.94 684.24 940.35 688.80 L 886.24 844.20 C 885.35 846.90 882.84 848.74 880.00 848.79 Z" fill="#ffffff" fill-rule="nonzero" node-id="98" stroke="none" target-height="169.38" target-width="290.5" target-x="651.44" target-y="679.41"></path><path d="M 880.00 850.92 L 659.29 850.92 C 656.46 850.92 653.82 849.53 652.21 847.21 C 650.46 844.73 650.02 841.56 651.02 838.69 L 705.13 683.31 C 706.33 679.76 709.65 677.35 713.40 677.31 L 934.09 677.31 C 936.92 677.31 939.56 678.70 941.17 681.02 C 942.93 683.50 943.37 686.68 942.36 689.54 L 888.25 844.90 C 887.05 848.45 883.75 850.87 880.00 850.92 Z M 713.40 681.55 C 711.46 681.60 709.76 682.87 709.16 684.72 L 655.05 840.10 C 654.50 841.66 654.74 843.39 655.69 844.74 C 656.50 845.93 657.85 846.65 659.29 846.66 L 880.00 846.66 C 881.94 846.61 883.64 845.34 884.24 843.49 L 938.35 688.11 C 938.90 686.55 938.66 684.82 937.71 683.47 C 936.90 682.28 935.55 681.56 934.11 681.55 Z" fill="#231815" fill-rule="nonzero" node-id="100" stroke="none" target-height="173.60999" target-width="293.34998" target-x="650.02" target-y="677.31"></path><path d="M 829.15 900.56 L 579.15 900.56 C 573.91 900.56 570.26 895.09 572.06 889.92 L 633.36 713.92 C 634.37 710.85 637.22 708.75 640.45 708.71 L 890.45 708.71 C 895.69 708.71 899.34 714.18 897.54 719.35 L 836.24 895.35 C 835.23 898.42 832.38 900.52 829.15 900.56 Z" fill="#040000" fill-rule="nonzero" node-id="102" stroke="none" target-height="191.84998" target-width="329.08002" target-x="570.26" target-y="708.71"></path><path d="M 168.46 914.13 C 168.46 914.13 171.73 569.41 361.46 537.83 C 561.82 504.48 605.32 659.18 605.32 659.18 L 649.00 804.63 L 664.22 914.13" fill="#ffffff" fill-rule="nonzero" node-id="104" stroke="none" target-height="409.65" target-width="495.75995" target-x="168.46" target-y="504.48"></path><path d="M 662.06 914.42 L 646.83 804.93 L 603.27 659.79 C 602.83 658.23 557.88 507.28 361.80 539.93 C 176.00 570.86 170.63 910.72 170.59 914.15 L 166.33 914.15 C 166.33 913.28 167.43 826.66 191.75 737.30 C 224.09 618.51 282.65 548.83 361.10 535.76 C 418.70 526.13 500.00 526.80 560.00 584.46 C 595.93 618.97 607.26 658.21 607.38 658.60 L 651.00 804.00 L 666.30 913.81 Z" fill="#040000" fill-rule="nonzero" node-id="106" stroke="none" target-height="407.13998" target-width="499.96997" target-x="166.33" target-y="507.28"></path><path d="M 441.60 537.94 L 450.96 539.31 L 459.64 541.11 L 467.69 543.33 L 475.58 546.09 L 482.48 549.09 L 488.47 552.30 L 492.84 555.12 L 496.48 557.95 L 499.47 560.78 L 501.88 563.61 L 503.93 566.80 L 505.23 569.91 L 505.86 572.97 L 505.86 576.04 L 505.16 579.03 L 503.86 581.87 L 501.90 584.61 L 499.19 587.26 L 496.20 589.48 L 492.66 591.56 L 488.47 593.49 L 483.58 595.26 L 477.01 597.04 L 469.62 598.41 L 461.31 599.32 L 452.97 599.68 L 444.11 599.48 L 434.67 598.71 L 425.31 597.34 L 416.63 595.54 L 408.59 593.32 L 400.69 590.56 L 393.80 587.56 L 387.80 584.35 L 383.43 581.52 L 379.79 578.70 L 376.80 575.87 L 374.39 573.04 L 372.34 569.85 L 371.05 566.74 L 370.42 563.68 L 370.41 560.61 L 371.11 557.61 L 372.41 554.77 L 374.37 552.04 L 377.08 549.39 L 380.07 547.17 L 383.62 545.09 L 387.80 543.16 L 392.70 541.38 L 399.26 539.61 L 406.65 538.24 L 414.97 537.33 L 423.30 536.97 L 432.17 537.17 L 441.60 537.94 Z" fill="#040000" fill-rule="nonzero" group-id="2" node-id="110" stroke="none" target-height="62.710022" target-width="135.44998" target-x="370.41" target-y="536.97"></path><path d="M 424.23 514.09 L 405.64 560.94 C 405.64 560.94 443.71 596.40 471.96 568.15 L 483.40 514.09 Z" fill="#ffffff" fill-rule="nonzero" node-id="113" stroke="none" target-height="82.31" target-width="77.75998" target-x="405.64" target-y="514.09"></path><path d="M 446.71 581.15 C 424.56 581.15 404.47 562.76 404.19 562.50 L 403.12 561.50 L 422.78 512.00 L 486.00 512.00 L 473.89 569.26 L 473.44 569.71 C 465.00 578.13 455.69 581.15 446.71 581.15 Z M 408.17 560.34 C 414.47 565.78 445.85 590.55 470.01 567.08 L 480.77 516.22 L 425.67 516.22 Z" fill="#040000" fill-rule="nonzero" node-id="115" stroke="none" target-height="78.54999" target-width="82.880005" target-x="403.12" target-y="512"></path><path d="M 548.24 446.90 L 518.59 446.90 L 518.59 446.90 L 518.59 397.19 L 518.59 397.19 L 548.24 397.19 L 551.53 397.41 L 554.70 398.04 L 557.76 399.09 L 560.67 400.52 L 563.35 402.31 L 565.83 404.49 L 568.00 406.97 L 569.79 409.66 L 571.22 412.56 L 572.26 415.63 L 572.88 418.80 L 573.10 422.09 L 573.10 422.09 L 572.86 425.50 L 572.20 428.71 L 571.13 431.75 L 569.68 434.63 L 567.91 437.25 L 565.80 439.64 L 563.41 441.74 L 560.79 443.50 L 557.90 444.95 L 554.86 446.01 L 551.65 446.66 L 548.24 446.90 Z" fill="#ffffff" fill-rule="nonzero" group-id="3" node-id="119" stroke="none" target-height="49.70999" target-width="54.50995" target-x="518.59" target-y="397.19"></path><path d="M 549.41 449.00 L 518.59 449.00 C 518.02 449.00 517.48 448.77 517.08 448.37 C 516.68 447.97 516.46 447.43 516.46 446.86 L 516.46 397.19 C 516.46 396.62 516.68 396.08 517.08 395.68 C 517.48 395.28 518.02 395.05 518.59 395.05 L 549.41 395.05 C 563.67 395.07 575.22 406.62 575.23 420.88 L 575.23 423.21 C 575.20 437.45 563.65 448.98 549.41 449.00 Z M 520.72 444.73 L 549.41 444.73 C 561.31 444.73 570.96 435.11 571.00 423.21 L 571.00 420.88 C 570.98 408.98 561.34 399.34 549.44 399.32 L 520.72 399.32 Z" fill="#040000" fill-rule="nonzero" node-id="122" stroke="none" target-height="53.950012" target-width="58.76996" target-x="516.46" target-y="395.05"></path><path d="M 544.81 429.12 C 544.81 429.12 545.81 416.31 558.19 416.31" fill="#ffffff" fill-rule="nonzero" node-id="124" stroke="none" target-height="12.809998" target-width="13.380005" target-x="544.81" target-y="416.31"></path><path d="M 544.81 431.25 L 544.64 431.25 C 544.07 431.21 543.53 430.95 543.16 430.52 C 542.78 430.09 542.60 429.52 542.64 428.95 C 543.06 423.84 546.83 414.17 558.15 414.17 C 558.95 414.12 559.71 414.51 560.12 415.19 C 560.54 415.88 560.54 416.73 560.12 417.42 C 559.71 418.10 558.95 418.49 558.15 418.44 C 547.89 418.44 546.93 428.85 546.90 429.29 C 546.81 430.38 545.91 431.23 544.81 431.25 Z" fill="#040000" fill-rule="nonzero" node-id="126" stroke="none" target-height="17.130005" target-width="17.940002" target-x="542.6" target-y="414.12"></path><path d="M 441.09 323.19 L 479.76 323.19 C 516.25 323.19 545.84 352.78 545.84 389.27 L 545.84 452.41 C 545.84 499.59 507.60 537.83 460.42 537.83 L 460.42 537.83 C 413.24 537.83 375.00 499.59 375.00 452.41 L 375.00 389.27 C 375.00 371.74 381.96 354.93 394.36 342.54 C 406.75 330.15 423.56 323.19 441.09 323.19 Z" fill="#ffffff" fill-rule="nonzero" node-id="128" stroke="none" target-height="214.64001" target-width="170.84003" target-x="375" target-y="323.19"></path><path d="M 463.34 540.00 L 457.51 540.00 C 410.79 539.95 372.93 502.09 372.88 455.37 L 372.88 323.19 C 372.88 322.01 373.83 321.06 375.01 321.06 L 545.84 321.06 C 546.41 321.06 546.95 321.28 547.35 321.68 C 547.75 322.08 547.98 322.62 547.98 323.19 L 547.98 455.33 C 547.95 502.07 510.08 539.95 463.34 540.00 Z M 377.14 325.37 L 377.14 455.37 C 377.20 499.73 413.15 535.68 457.51 535.74 L 463.34 535.74 C 507.71 535.69 543.66 499.74 543.71 455.37 L 543.71 325.37 Z" fill="#040000" fill-rule="nonzero" node-id="130" stroke="none" target-height="218.94" target-width="175.09998" target-x="372.88" target-y="321.06"></path><path d="M 345.36 412.49 L 375.00 412.49 L 375.00 412.49 L 375.00 462.21 L 375.00 462.21 L 345.36 462.21 C 331.63 462.21 320.50 451.08 320.50 437.35 L 320.50 437.35 C 320.50 423.62 331.63 412.49 345.36 412.49 Z" fill="#ffffff" fill-rule="nonzero" node-id="132" stroke="none" target-height="49.72" target-width="54.5" target-x="320.5" target-y="412.49"></path><path d="M 375.00 464.34 L 344.19 464.34 C 329.94 464.32 318.39 452.77 318.37 438.52 L 318.37 436.18 C 318.39 421.93 329.94 410.38 344.19 410.36 L 375.00 410.36 C 376.18 410.36 377.13 411.31 377.13 412.49 L 377.13 462.21 C 377.13 463.39 376.18 464.34 375.00 464.34 Z M 344.18 414.63 C 332.29 414.65 322.65 424.29 322.63 436.18 L 322.63 438.52 C 322.64 450.42 332.28 460.06 344.18 460.07 L 372.87 460.07 L 372.87 414.63 Z" fill="#040000" fill-rule="nonzero" node-id="134" stroke="none" target-height="53.98001" target-width="58.76001" target-x="318.37" target-y="410.36"></path><path d="M 443.84 388.53 C 436.75 388.53 428.24 387.16 422.72 381.64 C 422.01 380.79 422.07 379.55 422.85 378.77 C 423.63 377.99 424.87 377.93 425.72 378.64 C 434.79 387.71 455.24 383.12 455.44 383.07 C 456.59 382.79 457.74 383.50 458.01 384.64 C 458.29 385.79 457.59 386.94 456.44 387.22 C 452.30 388.10 448.07 388.53 443.84 388.53 Z" fill="#040000" fill-rule="nonzero" node-id="136" stroke="none" target-height="10.600006" target-width="36.28" target-x="422.01" target-y="377.93"></path><path d="M 375.00 444.74 C 374.41 444.74 373.84 444.49 373.44 444.06 C 361.32 431.00 349.54 438.30 349.00 438.62 C 348.01 439.17 346.77 438.85 346.16 437.90 C 345.55 436.95 345.79 435.69 346.70 435.02 C 346.84 434.93 362.02 425.48 376.54 441.16 C 377.11 441.78 377.26 442.69 376.92 443.46 C 376.58 444.23 375.81 444.73 374.97 444.74 Z" fill="#040000" fill-rule="nonzero" node-id="138" stroke="none" target-height="19.25998" target-width="31.710022" target-x="345.55" target-y="425.48"></path><path d="M 573.00 317.74 C 575.64 305.00 572.40 291.74 564.18 281.66 C 555.95 271.57 543.62 265.72 530.61 265.74 C 530.33 265.74 530.05 265.74 529.77 265.74 C 482.15 218.12 432.60 254.58 432.60 254.58 C 431.60 254.51 430.60 254.43 429.60 254.43 C 417.66 254.43 406.30 259.56 398.41 268.52 C 383.81 268.84 371.82 278.05 369.53 290.08 C 349.58 295.74 337.14 315.45 337.14 335.35 C 337.16 337.54 337.37 339.73 337.76 341.89 C 337.56 341.99 337.34 342.06 337.14 342.16 C 337.14 342.16 325.57 354.01 325.57 371.62 C 325.57 388.84 330.78 417.07 330.78 417.07 C 330.78 417.07 372.87 402.78 372.87 442.58 L 394.04 438.05 C 394.04 438.05 393.69 415.88 398.79 396.05 C 400.41 396.20 402.06 396.27 403.73 396.27 C 429.23 396.27 451.53 386.27 453.38 364.27 C 462.20 375.00 475.00 378.80 491.14 378.80 C 506.52 378.80 520.14 368.15 529.01 358.28 C 536.19 366.38 547.19 369.97 557.77 367.67 C 568.35 365.37 576.86 357.53 580.02 347.17 C 583.18 336.81 580.50 325.56 573.01 317.74 Z" fill="#040000" fill-rule="nonzero" node-id="140" stroke="none" target-height="224.45999" target-width="257.61" target-x="325.57" target-y="218.12"></path><path d="M 475.40 333.88 C 455.99 333.88 435.79 325.69 434.51 325.17 C 433.42 324.72 432.90 323.48 433.35 322.39 C 433.79 321.29 435.04 320.77 436.13 321.22 C 436.59 321.41 481.60 339.64 499.55 321.69 C 500.40 320.98 501.64 321.04 502.42 321.82 C 503.20 322.60 503.26 323.84 502.55 324.69 C 495.67 331.60 485.65 333.88 475.40 333.88 Z" fill="#ffffff" fill-rule="nonzero" node-id="142" stroke="none" target-height="18.870026" target-width="70.360016" target-x="432.9" target-y="320.77"></path><path d="M 515.00 316.92 C 514.09 316.91 513.29 316.34 513.00 315.48 C 512.70 314.63 512.97 313.68 513.68 313.11 C 513.75 313.05 521.18 307.11 523.17 301.33 C 523.66 300.39 524.77 299.95 525.77 300.30 C 526.77 300.65 527.37 301.68 527.17 302.72 C 524.77 309.72 516.63 316.19 516.28 316.46 C 515.92 316.75 515.47 316.91 515.00 316.92 Z" fill="#ffffff" fill-rule="nonzero" node-id="144" stroke="none" target-height="16.970001" target-width="14.669983" target-x="512.7" target-y="299.95"></path><path d="M 447.19 455.07 C 432.33 455.07 420.28 443.02 420.28 428.16 C 420.28 413.30 432.33 401.25 447.19 401.25 C 462.05 401.25 474.10 413.30 474.10 428.16 C 474.08 443.02 462.05 455.05 447.19 455.07 Z M 447.19 405.51 C 438.03 405.51 429.77 411.02 426.26 419.49 C 422.75 427.95 424.68 437.69 431.16 444.17 C 437.64 450.65 447.38 452.59 455.85 449.09 C 464.31 445.58 469.83 437.32 469.83 428.16 C 469.82 415.66 459.69 405.53 447.19 405.51 Z" fill="#040000" fill-rule="nonzero" node-id="146" stroke="none" target-height="53.820007" target-width="53.820007" target-x="420.28" target-y="401.25"></path><path d="M 520.00 452.22 C 505.14 452.22 493.09 440.17 493.09 425.31 C 493.09 410.45 505.14 398.40 520.00 398.40 C 534.86 398.40 546.91 410.45 546.91 425.31 C 546.89 440.17 534.86 452.20 520.00 452.22 Z M 520.00 402.66 C 507.49 402.66 497.35 412.80 497.35 425.31 C 497.35 437.82 507.49 447.96 520.00 447.96 C 532.51 447.96 542.65 437.82 542.65 425.31 C 542.64 412.81 532.50 402.67 520.00 402.66 Z" fill="#040000" fill-rule="nonzero" node-id="148" stroke="none" target-height="53.820007" target-width="53.819977" target-x="493.09" target-y="398.4"></path><path d="M 473.09 430.00 L 470.84 426.38 C 471.47 425.99 486.39 416.91 497.55 426.58 L 494.76 429.80 C 486.00 422.16 473.22 429.90 473.09 430.00 Z" fill="#040000" fill-rule="nonzero" node-id="150" stroke="none" target-height="13.089996" target-width="26.709991" target-x="470.84" target-y="416.91"></path><path d="M 387.97 414.44 L 389.78 410.57 L 423.32 426.24 L 421.51 430.10 Z" fill="#040000" fill-rule="nonzero" group-id="4" node-id="154" stroke="none" target-height="19.529999" target-width="35.350006" target-x="387.97" target-y="410.57"></path><path d="M 449.55 850.76 C 442.48 850.73 436.01 846.77 432.76 840.50 C 429.51 834.22 430.01 826.65 434.07 820.86 L 537.50 673.72 C 543.79 665.95 555.03 664.38 563.21 670.14 C 571.38 675.90 573.70 687.01 568.50 695.55 L 465.12 842.69 C 462.23 846.82 457.82 849.62 452.85 850.47 C 451.76 850.66 450.66 850.76 449.55 850.76 Z M 553.06 669.92 C 552.20 669.92 551.35 670.00 550.50 670.15 C 546.66 670.80 543.23 672.96 540.99 676.15 L 437.56 823.32 C 432.90 829.97 434.50 839.13 441.13 843.81 L 441.13 843.81 C 447.78 848.48 456.95 846.88 461.63 840.24 L 565.06 693.10 C 568.21 688.61 568.61 682.74 566.09 677.87 C 563.56 673.00 558.54 669.94 553.06 669.92 Z" fill="#040000" fill-rule="nonzero" node-id="157" stroke="none" target-height="186.38" target-width="144.19" target-x="429.51" target-y="664.38"></path><path d="M 587.00 696.54 C 582.18 696.61 577.42 695.41 573.21 693.06 C 560.21 685.61 554.68 667.16 557.69 641.13 C 560.62 615.72 571.31 585.87 587.79 557.13 C 604.27 528.39 624.55 504.00 645.00 488.56 C 665.92 472.79 684.62 468.20 697.64 475.66 C 724.36 490.95 717.95 550.66 683.06 611.66 C 666.58 640.45 646.26 664.78 625.83 680.18 C 611.44 691.00 598.11 696.54 587.00 696.54 Z M 683.80 476.42 C 673.64 476.42 661.22 481.70 647.59 491.97 C 627.59 507.03 607.69 530.91 591.49 559.20 C 575.29 587.49 564.79 616.77 561.92 641.62 C 559.13 665.85 563.92 682.80 575.33 689.35 C 586.74 695.90 603.81 691.43 623.33 676.74 C 643.33 661.68 663.23 637.81 679.43 609.51 L 679.43 609.51 C 712.57 551.62 719.82 493.23 695.59 479.36 C 691.98 477.35 687.89 476.33 683.76 476.42 Z" fill="#040000" fill-rule="nonzero" node-id="159" stroke="none" target-height="228.40997" target-width="169.68" target-x="554.68" target-y="468.2"></path><path d="M 591.37 678.72 C 588.32 678.77 585.31 678.01 582.65 676.52 C 563.30 665.45 571.32 616.29 600.90 564.61 C 614.83 540.28 631.38 519.35 647.49 505.66 C 664.15 491.51 678.59 486.73 688.16 492.20 C 697.73 497.67 700.91 512.55 697.16 534.09 C 693.52 554.91 683.85 579.78 669.92 604.09 C 644.28 648.86 612.10 678.72 591.37 678.72 Z M 679.37 494.27 C 671.71 494.27 661.51 499.33 650.22 508.91 C 634.47 522.29 618.22 542.82 604.58 566.73 C 577.13 614.68 568.04 663.26 584.74 672.82 C 601.44 682.38 638.74 649.94 666.17 601.99 L 668.02 603.05 L 666.20 602.00 C 679.89 578.09 689.38 553.71 692.94 533.36 C 696.32 514.01 693.81 500.36 686.04 495.92 C 684.01 494.79 681.72 494.22 679.40 494.27 Z" fill="#040000" fill-rule="nonzero" node-id="161" stroke="none" target-height="195.65" target-width="137.60999" target-x="563.3" target-y="486.73"></path><path d="M 602.75 565.67 C 625.40 526.12 653.75 497.86 673.59 492.97 C 673.66 487.40 673.09 481.83 671.88 476.39 C 646.46 484.26 614.28 515.03 589.60 558.14 C 564.92 601.25 554.68 644.58 560.77 670.49 C 566.07 668.77 571.16 666.45 575.93 663.57 C 570.13 644.00 580.11 605.22 602.75 565.67 Z" fill="#ffffff" fill-rule="nonzero" node-id="163" stroke="none" target-height="194.09998" target-width="118.97998" target-x="554.68" target-y="476.39"></path><path d="M 559.22 673.21 L 558.69 670.98 C 552.30 643.79 563.69 599.08 587.75 557.08 C 611.81 515.08 644.57 482.61 671.25 474.35 L 673.44 473.67 L 673.96 475.90 C 675.20 481.51 675.79 487.25 675.72 493.00 L 675.72 494.67 L 674.10 495.07 C 654.27 499.97 626.35 528.78 604.61 566.76 L 604.61 566.76 C 582.87 604.76 572.16 643.41 577.97 662.99 L 578.45 664.59 L 577.01 665.44 C 572.10 668.41 566.86 670.79 561.40 672.56 Z M 670.29 479.21 C 644.99 488.21 614.29 519.31 591.45 559.21 C 568.61 599.11 557.34 641.33 562.36 667.72 C 566.19 666.31 569.90 664.58 573.44 662.55 C 568.33 641.55 579.20 602.55 600.90 564.62 C 622.60 526.69 650.70 497.62 671.44 491.36 C 671.40 487.27 671.02 483.19 670.29 479.17 Z" fill="#040000" fill-rule="nonzero" node-id="165" stroke="none" target-height="199.54001" target-width="123.48999" target-x="552.3" target-y="473.67"></path><path d="M 696.56 477.51 C 671.27 463.03 623.38 499.13 589.56 558.14 C 555.74 617.15 548.90 676.73 574.19 691.21 C 599.48 705.69 647.37 669.58 681.19 610.57 C 715.01 551.56 721.85 492.00 696.56 477.51 Z M 668.05 603.05 C 639.76 652.48 602.20 684.18 584.16 673.85 C 566.12 663.52 574.45 615.09 602.74 565.66 C 631.03 516.23 668.59 484.54 686.63 494.86 C 704.67 505.18 696.34 553.62 668.05 603.05 Z" fill="#ffffff" fill-rule="nonzero" node-id="167" stroke="none" target-height="242.66" target-width="172.94995" target-x="548.9" target-y="463.03"></path><path d="M 587.00 696.54 C 582.18 696.61 577.42 695.41 573.21 693.06 C 560.21 685.61 554.68 667.16 557.69 641.13 C 560.62 615.72 571.31 585.87 587.79 557.13 C 604.27 528.39 624.55 504.00 645.00 488.56 C 665.92 472.79 684.62 468.20 697.64 475.66 L 697.64 475.66 C 724.36 490.95 717.95 550.66 683.06 611.66 C 666.58 640.45 646.26 664.78 625.83 680.18 C 611.44 691.00 598.11 696.54 587.00 696.54 Z M 683.80 476.42 C 673.64 476.42 661.22 481.70 647.59 491.97 C 627.59 507.03 607.69 530.91 591.49 559.20 C 575.29 587.49 564.79 616.77 561.92 641.62 C 559.13 665.85 563.92 682.80 575.33 689.35 C 586.74 695.90 603.80 691.43 623.33 676.74 C 643.33 661.68 663.23 637.81 679.43 609.51 C 712.57 551.62 719.82 493.23 695.59 479.36 L 695.59 479.36 C 691.98 477.35 687.89 476.33 683.76 476.42 Z M 591.93 677.93 C 588.84 677.98 585.80 677.22 583.10 675.71 C 563.75 664.63 571.57 615.83 600.89 564.60 C 630.21 513.37 668.34 481.94 687.69 493.01 C 707.04 504.08 699.22 552.89 669.90 604.11 C 656.10 628.23 639.67 648.96 623.64 662.49 C 611.57 672.67 600.66 677.93 591.93 677.93 Z M 678.77 495.00 C 660.17 495.00 628.54 524.86 604.59 566.70 C 577.40 614.23 568.53 662.45 585.22 672.00 C 592.99 676.46 605.99 671.80 620.88 659.23 C 636.54 646.00 652.63 625.69 666.20 602.00 C 693.39 554.49 702.26 506.28 685.57 496.72 C 683.49 495.56 681.15 494.96 678.77 495.00 Z" fill="#040000" fill-rule="nonzero" node-id="169" stroke="none" target-height="228.40997" target-width="169.68" target-x="554.68" target-y="468.2"></path><path d="M 668.05 603.05 C 693.77 558.12 702.91 514.10 690.82 498.70 L 658.32 618.77 C 661.64 613.76 664.91 608.53 668.05 603.05 Z" fill="none" node-id="171" stroke="none" target-height="120.07001" target-width="44.589966" target-x="658.32" target-y="498.7"></path><path d="M 687.10 494.05 C 683.37 491.92 678.75 491.69 673.59 492.97 C 673.54 518.80 663.03 553.84 643.05 588.74 C 623.07 623.64 598.18 650.45 575.93 663.57 C 577.44 668.67 579.93 672.57 583.71 674.67 C 601.71 684.99 639.50 652.93 668.05 603.05 C 696.60 553.17 705.13 504.38 687.10 494.05 Z" fill="#ffffff" fill-rule="nonzero" node-id="173" stroke="none" target-height="193.29999" target-width="129.20001" target-x="575.93" target-y="491.69"></path><path d="M 591.40 678.73 C 588.34 678.78 585.32 678.02 582.65 676.52 C 578.57 674.19 575.65 670.04 573.88 664.17 L 573.41 662.58 L 574.84 661.73 C 597.84 648.17 622.02 621.18 641.19 587.68 C 660.36 554.18 671.40 519.68 671.45 492.96 L 671.45 491.30 L 673.07 490.90 C 678.99 489.42 684.07 489.90 688.15 492.20 C 697.71 497.67 700.90 512.55 697.15 534.09 C 693.51 554.91 683.84 579.78 669.91 604.09 C 655.98 628.40 639.44 649.36 623.32 663.04 C 611.15 673.39 600.17 678.73 591.40 678.73 Z M 578.49 664.52 C 579.92 668.46 582.02 671.25 584.77 672.82 C 592.55 677.27 605.58 672.52 620.55 659.82 C 636.30 646.45 652.55 625.91 666.20 602.00 C 679.85 578.09 689.38 553.71 692.94 533.36 C 696.32 514.01 693.81 500.36 686.04 495.92 L 686.04 495.92 C 683.29 494.34 679.82 493.92 675.70 494.70 C 675.20 521.85 664.03 556.39 644.90 589.81 C 625.77 623.23 601.65 650.33 578.49 664.52 Z" fill="#040000" fill-rule="nonzero" node-id="175" stroke="none" target-height="189.36002" target-width="127.49005" target-x="573.41" target-y="489.42"></path><path d="M 655.72 454.52 L 654.80 454.01 L 654.80 454.11 C 628.80 444.67 583.74 480.01 551.51 536.31 C 517.73 595.31 510.85 654.90 536.14 669.37 L 574.28 691.21 C 548.99 676.73 555.87 617.15 589.65 558.14 C 623.43 499.13 671.32 463.03 696.65 477.51 L 660.50 457.22 Z" fill="#ffffff" fill-rule="nonzero" node-id="177" stroke="none" target-height="246.54001" target-width="185.80002" target-x="510.85" target-y="444.67"></path><path d="M 574.23 693.34 C 573.86 693.34 573.49 693.24 573.17 693.06 L 535.00 671.22 C 522.00 663.77 516.47 645.33 519.47 619.30 C 522.41 593.88 533.10 564.04 549.58 535.30 C 582.20 478.30 627.30 442.66 654.89 451.96 C 655.21 451.96 655.53 452.05 655.82 452.20 L 697.27 475.53 L 697.59 475.71 C 698.61 476.29 698.97 477.60 698.39 478.62 C 697.81 479.64 696.50 480.00 695.48 479.42 L 695.20 479.26 C 683.76 472.93 666.84 477.46 647.52 492.02 C 627.52 507.08 607.62 530.96 591.42 559.25 C 575.22 587.54 564.72 616.82 561.85 641.67 C 559.06 665.88 563.85 682.82 575.23 689.39 L 575.23 689.39 C 576.07 689.87 576.49 690.86 576.24 691.80 C 575.99 692.74 575.14 693.39 574.17 693.39 Z M 645.50 454.70 C 619.71 454.70 581.33 488.42 553.31 537.37 C 537.12 565.66 526.61 594.93 523.74 619.79 C 520.94 644.02 525.74 660.97 537.15 667.52 L 562.75 682.18 C 557.44 672.57 555.63 658.55 557.65 641.18 C 560.58 615.77 571.27 585.92 587.75 557.18 C 604.23 528.44 624.55 504.00 645.00 488.56 C 658.92 478.07 671.85 472.56 682.77 472.19 L 654.69 456.39 L 654.69 456.39 L 654.37 456.22 C 654.26 456.20 654.15 456.17 654.04 456.13 C 651.30 455.16 648.41 454.67 645.50 454.70 Z" fill="#040000" fill-rule="nonzero" node-id="179" stroke="none" target-height="250.73001" target-width="182.5" target-x="516.47" target-y="442.66"></path><path d="M 696.56 477.51 C 671.27 463.03 623.38 499.13 589.56 558.14 C 555.74 617.15 548.90 676.73 574.19 691.21 C 599.48 705.69 647.37 669.58 681.19 610.57 C 715.01 551.56 721.85 492.00 696.56 477.51 Z M 668.05 603.05 C 664.91 608.53 661.64 613.76 658.32 618.77 L 658.32 618.88 L 658.23 618.95 C 635.51 653.13 609.35 675.59 592.23 675.77 C 589.44 675.86 586.68 675.20 584.23 673.85 C 566.23 663.53 574.52 615.09 602.81 565.66 C 631.10 516.23 668.66 484.54 686.70 494.86 C 688.33 495.86 689.76 497.16 690.89 498.70 C 702.91 514.10 693.77 558.12 668.05 603.05 Z" fill="#ffffff" fill-rule="nonzero" node-id="181" stroke="none" target-height="242.66" target-width="172.94995" target-x="548.9" target-y="463.03"></path><path d="M 587.00 696.54 C 582.18 696.61 577.42 695.41 573.21 693.06 C 560.21 685.61 554.68 667.16 557.69 641.13 C 560.62 615.72 571.31 585.87 587.79 557.13 C 604.27 528.39 624.55 504.00 645.00 488.56 C 665.92 472.79 684.62 468.20 697.64 475.66 L 697.64 475.66 C 724.36 490.95 717.95 550.66 683.06 611.66 C 666.58 640.45 646.26 664.78 625.83 680.18 C 611.44 691.00 598.11 696.54 587.00 696.54 Z M 683.80 476.42 C 673.64 476.42 661.22 481.70 647.59 491.97 C 627.59 507.03 607.69 530.91 591.49 559.20 C 575.29 587.49 564.79 616.77 561.92 641.62 C 559.13 665.85 563.92 682.80 575.33 689.35 C 586.74 695.90 603.80 691.43 623.33 676.74 C 643.33 661.68 663.23 637.81 679.43 609.51 C 712.57 551.62 719.82 493.23 695.59 479.36 L 695.59 479.36 C 691.98 477.35 687.89 476.33 683.76 476.42 Z M 592.00 677.90 C 588.91 677.96 585.85 677.20 583.14 675.71 C 563.79 664.63 571.61 615.83 600.93 564.60 C 630.25 513.37 668.38 481.94 687.73 493.01 C 689.61 494.13 691.24 495.62 692.54 497.38 C 705.44 513.82 695.93 558.71 669.94 604.11 L 669.94 604.11 C 667.01 609.23 663.86 614.32 660.32 619.67 L 660.24 619.97 L 659.89 620.32 C 636.72 655.12 610.17 677.71 592.24 677.90 Z M 678.77 495.00 C 660.17 495.00 628.54 524.86 604.59 566.70 C 577.40 614.23 568.53 662.45 585.22 672.00 C 587.35 673.12 589.74 673.69 592.15 673.63 C 608.49 673.46 634.32 651.01 656.42 617.77 L 656.54 617.59 C 660.10 612.22 663.26 607.12 666.20 601.99 L 666.20 601.99 C 690.96 558.74 700.82 514.90 689.14 499.99 C 688.18 498.67 686.96 497.55 685.57 496.69 C 683.49 495.54 681.15 494.95 678.77 495.00 Z" fill="#040000" fill-rule="nonzero" node-id="183" stroke="none" target-height="228.40997" target-width="169.68" target-x="554.68" target-y="468.2"></path><path d="M 337.62 806.00 C 337.62 794.00 342.06 754.77 342.06 754.77 L 272.24 746.77" fill="#ffffff" fill-rule="nonzero" node-id="185" stroke="none" target-height="59.22998" target-width="69.82001" target-x="272.24" target-y="746.77"></path><path d="M 337.62 808.08 C 336.44 808.08 335.49 807.13 335.48 805.95 C 335.48 795.42 338.77 764.95 339.70 756.60 L 272.00 748.89 C 270.83 748.75 269.99 747.70 270.12 746.53 C 270.17 745.96 270.45 745.44 270.90 745.09 C 271.34 744.73 271.92 744.57 272.48 744.65 L 342.30 752.65 C 343.47 752.78 344.31 753.83 344.18 755.00 C 344.13 755.40 339.75 794.23 339.75 806.00 C 339.72 807.15 338.77 808.08 337.62 808.08 Z" fill="#040000" fill-rule="nonzero" node-id="187" stroke="none" target-height="63.51001" target-width="74.32001" target-x="269.99" target-y="744.57"></path><path d="M 268.00 746.77 C 268.00 746.77 257.95 796.44 258.00 836.17 C 257.98 846.31 262.07 856.03 269.33 863.10 C 276.60 870.17 286.42 874.00 296.56 873.70 C 337.28 872.35 405.68 849.39 496.15 812.88 L 529.00 800.57 C 538.68 797.27 547.33 791.52 554.12 783.87 C 560.12 776.93 565.74 769.72 556.50 765.71 C 556.50 765.71 569.50 751.71 554.95 748.34 C 554.95 748.34 562.05 733.09 545.54 736.02 C 545.54 736.02 543.46 721.81 531.73 729.10 C 520.67 735.98 513.24 747.87 496.52 753.43 C 496.52 753.43 507.60 738.27 499.70 733.35 C 491.80 728.43 484.23 737.96 472.70 763.84 C 472.70 763.84 470.58 771.16 466.03 772.15 C 461.90 773.06 379.16 789.33 320.60 814.15" fill="#ffffff" fill-rule="nonzero" node-id="189" stroke="none" target-height="152.19" target-width="311.55" target-x="257.95" target-y="721.81"></path><path d="M 295.26 875.85 C 285.08 875.86 275.29 871.89 268.00 864.79 C 260.22 857.31 255.84 846.97 255.87 836.17 C 255.87 796.69 265.82 746.84 265.87 746.35 C 266.15 745.25 267.25 744.57 268.36 744.79 C 269.48 745.01 270.22 746.07 270.06 747.19 C 269.96 747.69 260.06 797.12 260.06 836.19 C 260.03 845.83 263.95 855.06 270.90 861.74 C 277.70 868.38 286.92 871.93 296.42 871.58 C 333.00 870.38 394.33 851.67 495.28 810.92 L 528.17 798.59 C 537.51 795.42 545.87 789.87 552.42 782.49 C 555.19 779.30 559.81 773.95 559.11 770.85 C 558.83 769.65 557.64 768.59 555.57 767.69 C 554.94 767.41 554.48 766.84 554.34 766.17 C 554.20 765.49 554.39 764.79 554.86 764.28 C 556.39 762.64 560.51 757.18 559.48 753.82 C 559.00 752.25 557.29 751.11 554.39 750.44 C 553.76 750.29 553.24 749.87 552.95 749.29 C 552.67 748.71 552.67 748.04 552.95 747.46 C 553.62 746.00 555.18 741.34 553.55 739.22 C 552.18 737.44 548.55 737.66 545.84 738.14 C 545.28 738.24 544.69 738.11 544.23 737.77 C 543.76 737.44 543.45 736.93 543.36 736.36 C 543.13 734.86 541.98 730.72 539.36 729.53 C 537.71 728.76 535.49 729.24 532.77 730.93 C 528.91 733.50 525.27 736.40 521.90 739.59 C 515.48 745.31 508.21 751.79 497.11 755.48 C 496.23 755.77 495.26 755.46 494.71 754.71 C 494.16 753.96 494.16 752.95 494.71 752.20 C 496.54 749.69 501.08 742.20 500.21 737.72 C 500.04 736.66 499.41 735.73 498.48 735.18 C 497.27 734.31 495.72 734.04 494.29 734.46 C 487.89 736.41 480.35 751.66 474.50 764.73 C 474.35 765.33 471.97 773.03 466.34 774.26 L 464.79 774.58 C 438.15 780.08 370.85 795.13 321.30 816.14 C 320.24 816.51 319.07 815.99 318.63 814.96 C 318.19 813.92 318.63 812.72 319.63 812.21 C 369.58 791.00 437.21 775.90 464.00 770.38 L 465.50 770.07 C 468.18 769.48 470.11 764.83 470.58 763.24 C 480.17 741.77 486.67 732.32 493.11 730.36 C 495.72 729.57 498.55 730.01 500.81 731.54 C 502.74 732.72 504.07 734.67 504.47 736.89 C 505.22 740.79 503.47 745.45 501.67 749.04 C 508.78 745.60 514.02 740.93 519.13 736.38 C 522.68 733.02 526.51 729.98 530.59 727.29 C 534.59 724.79 538.20 724.23 541.24 725.64 C 544.78 727.28 546.44 731.20 547.15 733.64 C 551.78 733.15 555.15 734.15 556.98 736.64 C 559.41 739.80 558.59 744.28 557.73 746.99 C 560.87 748.17 562.85 750.05 563.62 752.59 C 565.01 757.14 561.91 762.28 559.78 765.12 C 561.54 766.20 562.81 767.92 563.33 769.92 C 564.42 774.73 560.33 779.92 555.71 785.30 C 548.69 793.23 539.73 799.20 529.71 802.62 L 496.90 814.91 C 395.51 855.84 333.73 874.64 296.64 875.91 Z" fill="#040000" fill-rule="nonzero" node-id="191" stroke="none" target-height="151.68" target-width="309.17" target-x="255.84" target-y="724.23"></path><path d="M 545.49 736.00 C 545.49 736.00 546.05 748.88 514.16 762.80" fill="#ffffff" fill-rule="nonzero" node-id="193" stroke="none" target-height="26.799988" target-width="31.890015" target-x="514.16" target-y="736"></path><path d="M 514.16 765.00 C 513.14 765.01 512.26 764.30 512.05 763.31 C 511.84 762.31 512.36 761.31 513.30 760.91 C 542.97 747.91 543.36 736.23 543.36 736.11 C 543.36 734.95 544.29 734.00 545.45 733.96 C 546.01 733.91 546.56 734.10 546.98 734.48 C 547.39 734.86 547.62 735.40 547.62 735.96 C 547.69 737.43 547.31 750.70 515.01 764.80 C 514.74 764.93 514.45 765.00 514.16 765.00 Z" fill="#040000" fill-rule="nonzero" node-id="195" stroke="none" target-height="31.100037" target-width="35.850006" target-x="511.84" target-y="733.91"></path><path d="M 555.64 745.20 C 555.64 745.20 545.00 768.76 519.10 774.48" fill="#ffffff" fill-rule="nonzero" node-id="197" stroke="none" target-height="29.279968" target-width="36.54004" target-x="519.1" target-y="745.2"></path><path d="M 519.10 776.61 C 518.01 776.61 517.10 775.79 516.98 774.71 C 516.86 773.63 517.58 772.63 518.64 772.40 C 543.16 766.97 553.64 744.54 553.70 744.32 C 554.19 743.25 555.45 742.77 556.52 743.26 C 557.59 743.75 558.07 745.01 557.58 746.08 C 557.13 747.08 546.14 770.68 519.58 776.56 C 519.42 776.60 519.26 776.61 519.10 776.61 Z" fill="#040000" fill-rule="nonzero" node-id="199" stroke="none" target-height="33.839966" target-width="41.210022" target-x="516.86" target-y="742.77"></path><path d="M 558.32 763.13 C 558.32 763.13 541.87 783.28 521.87 785.71" fill="#ffffff" fill-rule="nonzero" node-id="201" stroke="none" target-height="22.580017" target-width="36.450012" target-x="521.87" target-y="763.13"></path><path d="M 521.87 787.85 C 520.72 787.88 519.76 786.99 519.69 785.85 C 519.63 784.70 520.48 783.71 521.62 783.60 C 540.54 781.30 556.51 761.97 556.62 761.78 C 557.39 760.95 558.67 760.86 559.54 761.58 C 560.42 762.29 560.59 763.56 559.93 764.48 C 559.23 765.33 542.69 785.33 522.08 787.83 Z" fill="#040000" fill-rule="nonzero" node-id="203" stroke="none" target-height="27.02002" target-width="40.960022" target-x="519.63" target-y="760.86"></path><path d="M 139.27 584.07 C 138.32 584.08 137.48 583.46 137.21 582.55 C 136.94 581.64 137.30 580.66 138.10 580.15 L 169.43 559.78 C 170.42 559.14 171.74 559.41 172.38 560.40 C 173.02 561.39 172.75 562.71 171.76 563.35 L 140.43 583.72 C 140.09 583.95 139.68 584.07 139.27 584.07 Z" fill="#040000" fill-rule="nonzero" node-id="205" stroke="none" target-height="24.940002" target-width="36.08" target-x="136.94" target-y="559.14"></path><path d="M 168.46 586.77 C 167.91 586.77 167.39 586.56 166.99 586.18 L 139.93 560.41 C 139.08 559.60 139.04 558.25 139.85 557.39 C 140.67 556.54 142.02 556.51 142.87 557.32 L 169.93 583.09 C 170.57 583.69 170.77 584.62 170.45 585.43 C 170.12 586.24 169.33 586.77 168.46 586.77 Z" fill="#040000" fill-rule="nonzero" node-id="207" stroke="none" target-height="30.26001" target-width="31.730011" target-x="139.04" target-y="556.51"></path><path d="M 242.00 456.10 C 237.23 456.10 232.83 452.74 228.93 446.10 C 225.84 440.86 222.68 438.10 219.80 438.02 L 219.73 438.02 C 216.09 438.02 213.00 442.32 211.83 444.18 C 210.13 447.06 207.95 449.63 205.39 451.78 C 197.94 457.63 190.03 456.63 183.69 449.01 C 180.55 445.24 177.55 443.33 174.78 443.33 C 172.01 443.33 169.85 445.25 168.51 446.85 C 165.51 450.43 162.62 452.75 159.62 453.94 C 155.32 455.66 148.87 456.31 142.57 449.73 C 140.07 447.11 137.48 445.89 134.99 446.14 C 130.13 446.59 126.39 452.14 126.35 452.14 C 125.71 453.13 124.39 453.40 123.40 452.76 C 122.41 452.12 122.14 450.80 122.78 449.81 C 122.97 449.51 127.63 442.51 134.60 441.81 C 138.48 441.45 142.20 443.10 145.65 446.70 C 149.39 450.60 153.56 451.70 158.04 449.90 C 160.37 448.98 162.72 447.06 165.23 444.05 C 167.15 441.74 170.37 438.99 174.78 438.99 C 178.88 438.99 182.98 441.41 186.97 446.20 C 191.89 452.12 197.05 452.82 202.75 448.34 C 204.93 446.49 206.78 444.29 208.22 441.83 C 210.14 438.77 214.17 433.67 219.73 433.67 L 219.86 433.67 C 224.38 433.73 228.67 437.16 232.60 443.85 C 235.68 449.08 238.85 451.74 242.01 451.74 L 242.07 451.74 C 246.63 451.74 250.82 445.99 252.07 443.80 C 252.68 442.85 253.92 442.54 254.91 443.09 C 255.89 443.64 256.28 444.86 255.80 445.88 C 255.57 446.29 250.12 455.88 242.15 456.00 Z" fill="#040000" fill-rule="nonzero" node-id="209" stroke="none" target-height="23.959991" target-width="134.14" target-x="122.14" target-y="433.67"></path><path d="M 909.53 598.54 C 904.75 598.54 900.35 595.18 896.45 588.54 C 893.37 583.29 890.21 580.54 887.32 580.46 C 883.80 580.55 880.53 584.74 879.32 586.61 C 877.62 589.49 875.44 592.06 872.87 594.21 C 865.42 600.06 857.51 599.06 851.18 591.45 C 848.04 587.68 845.04 585.77 842.26 585.77 L 842.26 585.77 C 839.51 585.77 837.33 587.68 836.00 589.29 C 833.00 592.86 830.11 595.18 827.11 596.38 C 822.81 598.09 816.36 598.75 810.05 592.16 C 807.55 589.55 804.98 588.33 802.48 588.58 C 797.61 589.03 793.88 594.58 793.84 594.58 C 793.20 595.57 791.88 595.84 790.89 595.20 C 789.90 594.56 789.63 593.24 790.27 592.25 C 790.46 591.95 795.11 584.95 802.08 584.31 C 805.95 583.92 809.69 585.59 813.14 589.19 C 816.88 593.10 821.05 594.19 825.53 592.39 C 827.86 591.47 830.21 589.55 832.72 586.54 C 834.64 584.23 837.85 581.48 842.26 581.48 L 842.26 581.48 C 846.37 581.48 850.47 583.91 854.46 588.70 C 859.38 594.61 864.54 595.31 870.23 590.83 C 872.41 588.99 874.26 586.79 875.70 584.32 C 877.64 581.24 881.83 576.23 887.34 576.17 C 891.87 576.24 896.15 579.66 900.09 586.35 C 903.17 591.59 906.33 594.24 909.49 594.24 L 909.55 594.24 C 914.11 594.24 918.30 588.50 919.55 586.31 C 920.12 585.28 921.42 584.91 922.45 585.48 C 923.48 586.05 923.85 587.35 923.28 588.38 C 923.05 588.79 917.60 598.38 909.63 598.51 Z" fill="#040000" fill-rule="nonzero" node-id="211" stroke="none" target-height="23.890015" target-width="134.21997" target-x="789.63" target-y="576.17"></path><path d="M 796.65 181.57 C 796.65 192.10 788.11 200.64 777.58 200.64 C 767.05 200.64 758.51 192.10 758.51 181.57 C 758.51 171.04 767.05 162.50 777.58 162.50 C 788.11 162.50 796.65 171.04 796.65 181.57 Z" fill="#ffffff" fill-rule="nonzero" node-id="213" stroke="none" target-height="38.14" target-width="38.140015" target-x="758.51" target-y="162.5"></path><path d="M 777.58 202.77 C 769.00 202.77 761.27 197.60 757.98 189.67 C 754.70 181.75 756.52 172.62 762.59 166.56 C 768.65 160.49 777.78 158.68 785.70 161.97 C 793.63 165.25 798.79 172.99 798.79 181.57 C 798.78 193.28 789.29 202.76 777.58 202.77 Z M 777.58 164.63 C 768.22 164.63 760.64 172.21 760.64 181.57 C 760.64 190.93 768.22 198.51 777.58 198.51 C 786.94 198.51 794.52 190.93 794.52 181.57 C 794.49 172.23 786.92 164.66 777.58 164.63 Z" fill="#231815" fill-rule="nonzero" node-id="215" stroke="none" target-height="44.09001" target-width="44.089966" target-x="754.7" target-y="158.68"></path><path d="M 359.46 759.94 L 252.12 748.68 C 242.55 747.58 235.67 738.94 236.76 729.36 L 248.76 661.12 C 252.65 626.97 283.49 602.44 317.64 606.33 L 327.47 607.45 C 361.62 611.35 386.14 642.18 382.25 676.33 L 378.74 744.57 C 377.65 754.13 369.02 761.01 359.46 759.94 Z" fill="#040000" fill-rule="nonzero" node-id="217" stroke="none" target-height="158.57" target-width="150.47002" target-x="235.67" target-y="602.44"></path><path d="M 513.43 383.36 C 511.56 383.37 509.69 383.24 507.84 382.96 C 506.68 382.76 505.90 381.65 506.10 380.50 C 506.31 379.34 507.41 378.56 508.57 378.76 C 508.72 378.76 523.64 381.23 532.72 372.14 C 533.23 371.48 534.07 371.17 534.88 371.35 C 535.69 371.53 536.33 372.17 536.51 372.98 C 536.69 373.79 536.38 374.63 535.72 375.14 C 528.79 382.10 519.36 383.36 513.43 383.36 Z" fill="#040000" fill-rule="nonzero" node-id="219" stroke="none" target-height="12.199982" target-width="30.790009" target-x="505.9" target-y="371.17"></path><path d="M 462.16 436.82 C 462.16 440.26 459.37 443.05 455.93 443.05 C 452.49 443.05 449.70 440.26 449.70 436.82 C 449.70 433.38 452.49 430.59 455.93 430.59 C 459.37 430.59 462.16 433.38 462.16 436.82 Z" fill="#040000" fill-rule="nonzero" node-id="221" stroke="none" target-height="12.459991" target-width="12.459991" target-x="449.7" target-y="430.59"></path><path d="M 534.23 434.01 C 534.23 437.45 531.44 440.24 528.00 440.24 C 524.56 440.24 521.77 437.45 521.77 434.01 C 521.77 430.57 524.56 427.78 528.00 427.78 C 531.44 427.78 534.23 430.57 534.23 434.01 Z" fill="#040000" fill-rule="nonzero" node-id="223" stroke="none" target-height="12.459991" target-width="12.459961" target-x="521.77" target-y="427.78"></path><path d="M 438.37 463.82 C 438.21 463.82 438.05 463.80 437.90 463.77 L 418.08 459.33 C 417.53 459.21 417.05 458.87 416.75 458.39 C 416.44 457.91 416.34 457.33 416.47 456.78 C 416.74 455.64 417.87 454.92 419.02 455.16 L 438.84 459.61 C 439.90 459.84 440.62 460.84 440.50 461.93 C 440.38 463.01 439.46 463.83 438.37 463.82 Z" fill="#231815" fill-rule="nonzero" node-id="225" stroke="none" target-height="8.909973" target-width="24.279999" target-x="416.34" target-y="454.92"></path><path d="M 530.63 459.42 C 529.65 459.44 528.78 458.79 528.52 457.84 C 528.27 456.89 528.70 455.89 529.56 455.42 L 542.10 448.21 C 543.12 447.62 544.43 447.97 545.01 449.00 C 545.60 450.02 545.25 451.32 544.23 451.91 L 531.69 459.12 C 531.37 459.31 531.00 459.41 530.63 459.42 Z" fill="#231815" fill-rule="nonzero" node-id="227" stroke="none" target-height="11.820007" target-width="17.329956" target-x="528.27" target-y="447.62"></path><path d="M 484.76 456.00 C 484.28 456.00 483.80 455.97 483.32 455.89 L 483.40 453.74 L 483.79 451.64 C 485.69 452.00 487.62 451.22 488.73 449.64 C 489.90 448.07 490.09 445.99 489.24 444.23 C 488.40 442.46 487.87 440.56 487.66 438.61 C 487.56 437.44 488.43 436.40 489.60 436.30 C 490.77 436.20 491.81 437.07 491.91 438.24 C 492.07 439.66 492.46 441.04 493.06 442.33 C 494.64 445.52 494.29 449.32 492.16 452.17 C 490.45 454.56 487.70 455.98 484.76 456.00 Z" fill="#231815" fill-rule="nonzero" node-id="229" stroke="none" target-height="19.799988" target-width="11.320007" target-x="483.32" target-y="436.2"></path><path d="M 488.43 479.47 C 484.39 479.46 480.44 478.33 477.00 476.21 C 476.11 475.52 475.90 474.25 476.53 473.32 C 477.17 472.38 478.42 472.10 479.39 472.67 L 479.39 472.67 C 484.98 476.05 491.98 476.02 497.54 472.61 C 498.55 472.01 499.86 472.35 500.46 473.36 C 501.06 474.37 500.72 475.68 499.71 476.28 C 496.31 478.35 492.41 479.45 488.43 479.47 Z" fill="#231815" fill-rule="nonzero" node-id="231" stroke="none" target-height="7.4599915" target-width="25.160004" target-x="475.9" target-y="472.01"></path><path d="M 787.91 914.13 L 537.91 914.13 C 535.45 914.12 533.16 912.91 531.75 910.90 C 530.35 908.88 530.01 906.31 530.85 904.00 L 592.15 736.25 C 593.22 733.25 596.06 731.25 599.24 731.25 L 849.24 731.25 C 851.70 731.25 854.01 732.45 855.43 734.47 C 856.84 736.49 857.18 739.08 856.33 741.39 L 795.00 909.17 C 793.91 912.15 791.08 914.13 787.91 914.13 Z" fill="#ffffff" fill-rule="nonzero" node-id="233" stroke="none" target-height="182.88" target-width="327.16998" target-x="530.01" target-y="731.25"></path><path d="M 787.91 916.26 L 537.91 916.26 C 534.75 916.25 531.80 914.71 529.99 912.12 C 528.18 909.53 527.74 906.23 528.82 903.26 L 590.11 735.52 C 591.52 731.71 595.15 729.17 599.21 729.16 L 849.21 729.16 C 852.37 729.17 855.32 730.71 857.13 733.30 C 858.94 735.89 859.38 739.19 858.30 742.16 L 797.00 909.90 C 795.59 913.71 791.97 916.24 787.91 916.26 Z M 599.24 733.42 C 596.97 733.42 594.94 734.84 594.15 736.97 L 532.86 904.72 C 532.25 906.38 532.49 908.23 533.50 909.68 C 534.51 911.13 536.17 911.99 537.94 911.99 L 787.94 911.99 C 790.21 911.99 792.24 910.57 793.03 908.44 L 854.29 740.70 C 854.90 739.04 854.66 737.19 853.65 735.73 C 852.64 734.28 850.98 733.42 849.21 733.42 Z" fill="#231815" fill-rule="nonzero" node-id="235" stroke="none" target-height="187.10004" target-width="331.64" target-x="527.74" target-y="729.16"></path><path d="M 764.51 847.52 L 759.07 847.52 L 767.66 823.92 C 767.77 823.62 767.85 823.32 767.90 823.01 C 768.06 822.72 768.20 822.41 768.32 822.10 C 769.42 819.10 767.88 816.66 764.85 816.66 L 717.65 816.66 L 724.48 797.90 L 729.93 797.90 C 734.77 797.90 740.55 793.66 741.70 788.82 L 749.85 766.43 C 751.39 762.20 749.30 757.96 744.46 757.96 L 722.08 757.96 C 716.73 758.19 711.99 761.49 709.92 766.43 L 701.55 789.43 C 700.74 791.38 700.98 793.61 702.20 795.33 C 703.42 797.05 705.44 798.02 707.55 797.90 L 713.60 797.90 L 706.77 816.66 L 659.57 816.66 C 656.25 816.88 653.35 819.00 652.14 822.10 C 652.03 822.40 651.95 822.70 651.89 823.01 C 651.73 823.30 651.59 823.61 651.48 823.92 L 642.89 847.52 L 636.89 847.52 C 632.65 847.52 626.89 851.75 625.11 856.59 L 616.91 879.00 C 615.15 883.84 617.46 887.47 622.30 887.47 L 644.69 887.47 C 649.53 887.47 655.09 883.84 656.24 879.00 L 664.39 856.61 C 666.15 851.77 664.07 847.54 659.23 847.54 L 653.78 847.54 L 661.05 827.54 L 702.80 827.54 L 695.53 847.54 L 689.53 847.54 C 684.69 847.54 678.91 851.77 677.15 856.61 L 669.00 879.00 C 667.24 883.84 670.15 887.47 675.00 887.47 L 697.39 887.47 C 702.23 887.47 707.79 883.84 708.95 879.00 L 717.00 856.59 C 718.76 851.75 716.67 847.52 711.83 847.52 L 706.38 847.52 L 713.65 827.52 L 755.40 827.52 L 748.13 847.52 L 742.13 847.52 C 737.29 847.52 732.13 851.75 730.36 856.59 L 722.20 879.00 C 720.44 883.84 722.75 887.47 727.59 887.47 L 750.00 887.47 C 755.34 887.22 760.07 883.93 762.14 879.00 L 770.28 856.61 C 772.05 851.75 769.35 847.52 764.51 847.52 Z" fill="#231815" fill-rule="nonzero" node-id="237" stroke="none" target-height="129.50995" target-width="156.89996" target-x="615.15" target-y="757.96"></path><path d="M 171.78 239.07 C 168.16 239.07 165.10 238.83 163.83 238.71 C 162.66 238.60 161.79 237.56 161.90 236.39 C 162.01 235.22 163.05 234.35 164.22 234.46 C 172.12 235.19 184.78 234.79 186.88 231.63 C 187.03 231.40 187.43 230.79 186.57 229.19 C 183.49 223.43 172.05 218.90 161.69 219.35 C 161.19 219.35 160.69 219.40 160.23 219.45 C 160.34 220.01 160.45 220.57 160.55 221.12 C 161.16 224.52 160.08 228.01 157.65 230.47 C 155.47 232.72 152.33 233.77 149.24 233.27 C 147.97 233.11 146.79 232.54 145.87 231.64 C 141.69 228.39 124.35 214.13 124.87 201.51 C 125.07 196.80 127.62 192.90 132.45 189.92 C 136.72 187.29 140.79 186.81 144.54 188.49 C 152.24 191.93 156.74 203.95 159.33 215.24 C 160.03 215.17 160.75 215.12 161.50 215.09 C 172.00 214.65 186.02 219.16 190.31 227.17 C 192.02 230.36 191.31 232.64 190.41 233.99 C 187.64 238.20 178.67 239.07 171.78 239.07 Z M 149.32 228.90 C 149.52 228.98 149.73 229.03 149.94 229.06 C 151.66 229.34 153.41 228.75 154.61 227.48 C 156.07 226.01 156.72 223.92 156.35 221.88 C 156.24 221.31 156.14 220.76 156.03 220.21 C 152.80 221.15 150.53 222.80 149.56 225.02 C 148.50 227.46 148.77 228.35 148.86 228.55 L 149.27 228.86 Z M 140.00 191.79 C 138.09 191.87 136.25 192.48 134.67 193.55 C 131.07 195.77 129.25 198.43 129.11 201.69 C 128.78 209.52 138.11 219.48 144.87 225.33 C 145.07 224.65 145.32 223.98 145.61 223.33 C 147.15 219.79 150.44 217.33 155.10 216.02 C 152.10 203.09 147.73 194.60 142.78 192.40 C 141.91 192.00 140.96 191.79 140.00 191.79 Z" fill="#231815" fill-rule="nonzero" node-id="239" stroke="none" target-height="52.26001" target-width="67.670006" target-x="124.35" target-y="186.81"></path><path d="M 173.23 218.50 C 172.99 218.50 172.75 218.46 172.52 218.37 C 171.99 218.18 171.55 217.79 171.31 217.28 C 171.06 216.77 171.03 216.18 171.22 215.65 C 172.58 211.81 175.27 200.65 171.45 195.26 C 169.88 193.03 167.32 191.94 163.62 191.94 C 162.09 191.87 160.62 192.51 159.62 193.66 C 156.62 197.15 156.94 205.04 157.33 207.79 C 157.49 208.57 157.20 209.38 156.59 209.88 C 155.97 210.39 155.12 210.50 154.39 210.19 C 153.65 209.87 153.16 209.18 153.10 208.38 C 153.03 207.90 151.49 196.51 156.40 190.86 C 158.22 188.77 160.87 187.61 163.64 187.68 C 168.75 187.68 172.56 189.40 174.96 192.80 C 180.83 201.10 175.49 216.43 175.26 217.08 C 174.95 217.94 174.14 218.51 173.23 218.50 Z" fill="#231815" fill-rule="nonzero" node-id="241" stroke="none" target-height="30.899994" target-width="29.339996" target-x="151.49" target-y="187.61"></path><path d="M 241.84 315.41 C 237.41 315.41 233.05 314.33 229.14 312.26 C 220.94 308.00 216.49 302.74 214.58 297.67 C 194.51 293.92 185.10 273.67 184.99 273.40 C 184.50 272.33 184.98 271.06 186.06 270.57 C 187.13 270.09 188.39 270.57 188.88 271.64 C 189.27 272.49 196.99 289.03 213.50 293.11 C 213.31 291.20 213.46 289.26 213.95 287.40 C 215.95 279.84 223.25 274.81 231.64 275.21 C 236.64 275.44 241.11 280.27 241.32 285.56 C 241.41 288.01 240.57 296.15 225.78 297.97 C 223.71 298.23 221.62 298.32 219.54 298.24 C 221.54 301.77 225.14 305.37 231.11 308.47 C 253.11 319.89 276.02 290.11 276.25 289.81 C 276.96 288.87 278.30 288.69 279.23 289.40 C 280.17 290.10 280.36 291.44 279.65 292.38 C 278.80 293.50 261.93 315.41 241.84 315.41 Z M 217.92 293.86 C 220.36 294.09 222.83 294.05 225.26 293.74 C 232.91 292.79 237.26 289.87 237.05 285.74 C 236.93 282.65 234.21 279.61 231.45 279.48 C 225.09 279.19 219.57 282.91 218.07 288.48 C 217.61 290.24 217.56 292.08 217.92 293.86 Z" fill="#231815" fill-rule="nonzero" node-id="243" stroke="none" target-height="49.80002" target-width="95.859985" target-x="184.5" target-y="270.09"></path><path d="M 593.66 275.23 C 592.81 275.23 591.96 275.17 591.12 275.04 C 582.20 273.68 577.12 265.57 576.89 265.22 C 576.27 264.22 576.58 262.91 577.58 262.29 C 578.57 261.66 579.89 261.97 580.51 262.97 C 580.51 263.04 584.84 269.78 591.79 270.83 C 596.25 271.50 600.98 269.70 605.79 265.49 C 608.70 262.97 609.79 260.73 609.10 258.82 C 607.34 254.11 595.45 250.32 586.77 250.32 C 585.43 250.32 584.37 250.32 583.54 250.39 C 582.81 251.22 582.36 251.70 582.33 251.74 C 581.75 252.36 580.86 252.57 580.06 252.30 C 577.20 251.30 577.01 249.70 577.16 248.83 C 577.43 247.26 578.77 246.55 581.46 246.25 C 582.17 245.42 583.00 244.41 583.89 243.25 C 592.89 231.86 597.01 222.33 595.24 217.09 C 594.41 214.65 592.24 213.01 588.64 212.09 C 584.61 210.95 580.28 211.60 576.76 213.88 C 564.52 221.55 559.61 245.20 559.56 245.44 C 559.33 246.59 558.20 247.34 557.04 247.10 C 555.89 246.87 555.15 245.74 555.38 244.59 C 555.59 243.59 560.70 218.92 574.49 210.27 C 579.02 207.38 584.57 206.55 589.74 208.00 C 594.74 209.30 598.01 211.91 599.32 215.78 C 602.23 224.39 594.38 236.94 587.32 245.94 L 587.22 246.08 C 595.05 246.18 610.22 249.51 613.22 257.35 C 614.22 259.94 614.22 264.01 608.71 268.75 C 603.63 273.05 598.61 275.23 593.66 275.23 Z" fill="#231815" fill-rule="nonzero" node-id="245" stroke="none" target-height="68.68001" target-width="59.069946" target-x="555.15" target-y="206.55"></path><path d="M 787.51 916.26 L 127.00 916.26 C 125.88 916.18 125.01 915.25 125.01 914.12 C 125.01 913.00 125.88 912.07 127.00 911.99 L 787.50 911.99 C 788.62 912.07 789.49 913.00 789.49 914.12 C 789.49 915.25 788.62 916.18 787.50 916.26 Z" fill="#231815" fill-rule="nonzero" node-id="247" stroke="none" target-height="4.2700195" target-width="664.48" target-x="125.01" target-y="911.99"></path><path d="M 538.39 237.59 L 538.04 237.59 C 537.48 237.50 536.98 237.19 536.65 236.72 C 536.33 236.26 536.19 235.69 536.29 235.13 L 547.13 170.19 C 547.22 169.63 547.52 169.13 547.99 168.80 C 548.45 168.47 549.02 168.34 549.58 168.44 C 550.74 168.63 551.53 169.73 551.34 170.89 L 540.50 235.81 C 540.32 236.84 539.43 237.59 538.39 237.59 Z" fill="#040000" fill-rule="nonzero" node-id="249" stroke="none" target-height="69.25" target-width="15.340027" target-x="536.19" target-y="168.34"></path><path d="M 621.73 297.58 L 588.89 297.58 C 587.77 297.50 586.90 296.57 586.90 295.44 C 586.90 294.32 587.77 293.39 588.89 293.31 L 621.73 293.31 C 622.85 293.39 623.72 294.32 623.72 295.44 C 623.72 296.57 622.85 297.50 621.73 297.58 Z" fill="#040000" fill-rule="nonzero" node-id="251" stroke="none" target-height="4.269989" target-width="36.819946" target-x="586.9" target-y="293.31"></path><path d="M 518.59 237.59 C 517.73 237.61 516.94 237.11 516.59 236.32 L 506.20 212.82 C 505.72 211.74 506.21 210.48 507.28 210.00 C 508.36 209.53 509.62 210.01 510.10 211.09 L 520.49 234.59 C 520.97 235.67 520.48 236.93 519.40 237.41 C 519.14 237.52 518.87 237.58 518.59 237.59 Z" fill="#040000" fill-rule="nonzero" node-id="253" stroke="none" target-height="28.080002" target-width="15.2499695" target-x="505.72" target-y="209.53"></path><path d="M 716.93 583.00 C 716.93 583.00 724.84 572.00 723.29 559.52" fill="#040000" fill-rule="nonzero" node-id="255" stroke="none" target-height="23.47998" target-width="7.910034" target-x="716.93" target-y="559.52"></path><path d="M 716.93 585.08 C 716.13 585.09 715.39 584.64 715.02 583.92 C 714.65 583.21 714.72 582.35 715.19 581.70 C 715.27 581.60 722.60 571.23 721.19 559.70 C 721.05 558.53 721.88 557.47 723.05 557.32 C 723.61 557.24 724.18 557.40 724.62 557.75 C 725.07 558.09 725.36 558.61 725.42 559.17 C 727.06 572.36 719.02 583.68 718.67 584.17 C 718.28 584.74 717.62 585.08 716.93 585.08 Z" fill="#231815" fill-rule="nonzero" node-id="257" stroke="none" target-height="27.850037" target-width="12.409973" target-x="714.65" target-y="557.24"></path><path d="M 723.81 604.52 C 723.36 604.52 722.93 604.38 722.57 604.12 C 722.10 603.79 721.79 603.29 721.70 602.72 C 721.60 602.16 721.74 601.58 722.08 601.12 C 722.23 600.91 737.30 579.65 734.36 555.92 C 734.21 554.75 735.04 553.69 736.21 553.54 C 737.38 553.39 738.44 554.22 738.59 555.39 C 741.74 580.82 726.20 602.70 725.54 603.62 C 725.14 604.18 724.50 604.51 723.81 604.52 Z" fill="#231815" fill-rule="nonzero" node-id="259" stroke="none" target-height="51.130005" target-width="20.140015" target-x="721.6" target-y="553.39"></path><path d="M 671.48 446.60 C 671.00 446.60 670.54 446.44 670.16 446.14 C 657.95 436.42 641.62 440.04 641.46 440.08 C 640.33 440.32 639.21 439.61 638.93 438.49 C 638.66 437.36 639.34 436.22 640.46 435.92 C 641.21 435.75 658.94 431.77 672.79 442.80 C 673.50 443.36 673.78 444.32 673.48 445.18 C 673.17 446.04 672.36 446.61 671.45 446.60 Z" fill="#231815" fill-rule="nonzero" node-id="261" stroke="none" target-height="14.839996" target-width="35.120056" target-x="638.66" target-y="431.77"></path><path d="M 682.89 434.76 C 682.32 434.76 681.77 434.53 681.37 434.12 C 658.70 410.86 633.80 425.73 632.74 426.37 C 631.74 426.99 630.42 426.68 629.81 425.67 C 629.19 424.67 629.50 423.36 630.50 422.74 C 630.79 422.56 659.34 405.39 684.42 431.14 C 685.02 431.75 685.19 432.67 684.86 433.46 C 684.53 434.25 683.75 434.76 682.89 434.76 Z" fill="#231815" fill-rule="nonzero" node-id="263" stroke="none" target-height="29.369995" target-width="56" target-x="629.19" target-y="405.39"></path><path d="M 0.00 0.00 L 1024.00 0.00 L 1024.00 1024.00 L 0.00 1024.00 Z" fill="none" node-id="265" stroke="none" target-height="1024" target-width="1024" target-x="0" target-y="0"></path><path d="M 868.35 344.22 C 867.70 344.22 867.08 343.92 866.68 343.41 L 843.50 314.09 C 842.77 313.16 842.93 311.82 843.86 311.10 C 844.78 310.37 846.12 310.52 846.85 311.45 L 870.00 340.77 C 870.51 341.41 870.60 342.28 870.25 343.02 C 869.89 343.75 869.15 344.22 868.33 344.22 Z" fill="#040000" fill-rule="nonzero" node-id="267" stroke="none" target-height="33.850006" target-width="27.829956" target-x="842.77" target-y="310.37"></path><path d="M 845.18 344.22 C 844.36 344.22 843.61 343.76 843.26 343.02 C 842.90 342.29 842.99 341.41 843.50 340.77 L 866.68 311.45 C 867.42 310.58 868.72 310.45 869.62 311.16 C 870.52 311.87 870.70 313.17 870.02 314.09 L 846.85 343.41 C 846.45 343.92 845.83 344.22 845.18 344.22 Z" fill="#040000" fill-rule="nonzero" node-id="269" stroke="none" target-height="33.76999" target-width="27.799988" target-x="842.9" target-y="310.45"></path></svg>