<svg height="1000" node-id="1" sillyvg="true" template-height="1000" template-width="1000" version="1.1" viewBox="0 0 1000 1000" width="1000" xmlns="http://www.w3.org/2000/svg" xmlns:xlink="http://www.w3.org/1999/xlink"><defs node-id="87"></defs><g node-id="299"><path d="M 822.90 827.40 C 807.90 859.10 780.70 895.20 747.10 905.00 C 649.20 933.70 643.70 904.60 503.70 904.60 C 424.50 904.60 373.30 911.30 342.20 917.80 C 280.80 930.70 219.50 894.20 202.90 833.70 C 182.10 757.90 206.90 662.00 216.60 629.50 C 218.80 622.20 217.80 614.20 213.80 607.70 C 178.00 548.40 161.50 525.30 154.60 495.40 C 144.00 448.90 189.40 409.20 234.00 426.00 C 234.20 426.10 234.30 426.10 234.50 426.20 C 234.90 426.40 235.30 426.50 235.70 426.60 C 249.30 431.10 263.90 403.70 268.50 390.10 L 298.30 300.50 C 305.10 275.70 311.90 250.30 323.40 227.20 C 338.70 196.40 367.90 183.50 395.00 164.50 C 423.30 144.70 450.60 123.40 476.70 100.70 C 487.40 91.40 496.90 85.60 505.50 82.50 C 554.80 64.80 575.30 135.90 628.40 151.50 C 694.20 170.90 739.70 243.80 771.00 330.60 C 779.50 354.30 805.00 367.10 829.20 359.90 C 829.40 359.80 829.60 359.80 829.80 359.70 C 856.00 352.10 880.10 364.80 893.60 387.50 C 906.50 409.10 901.10 436.00 894.70 458.80 C 881.30 506.10 843.00 558.70 830.70 574.70 C 828.30 577.90 827.20 581.90 827.70 585.90 C 833.00 628.20 838.70 670.50 840.10 713.20 C 841.30 751.90 839.70 791.90 822.90 827.40 Z" fill="#ffdde1" fill-rule="nonzero" group-id="1" node-id="91" stroke="none" target-height="868.9" target-width="762.5" target-x="144" target-y="64.8"></path></g><g node-id="300"><g node-id="317"><path d="M 866.60 459.00 C 873.00 436.20 878.40 409.30 865.50 387.70 C 852.00 365.00 827.80 352.20 801.70 359.90 C 799.90 360.40 798.20 361.00 796.40 361.60 C 808.20 366.50 818.40 375.70 825.50 387.80 C 838.40 409.40 833.00 436.30 826.60 459.10 C 813.20 506.40 774.90 559.00 762.60 575.00 C 760.10 578.20 759.10 582.20 759.60 586.20 C 764.90 628.50 770.60 670.80 772.00 713.50 C 773.30 752.00 771.80 792.00 755.00 827.40 C 740.00 859.10 712.80 895.20 679.20 905.00 C 656.80 911.60 639.20 915.10 623.80 916.70 C 650.60 919.10 675.90 917.80 719.20 905.00 C 752.80 895.10 780.00 859.10 795.00 827.40 C 811.80 792.00 813.30 752.00 812.00 713.50 C 810.50 670.90 804.90 628.50 799.60 586.20 C 799.10 582.20 800.20 578.20 802.60 575.00 C 814.80 558.90 853.20 506.30 866.60 459.00 Z" fill="#ee9ca7" fill-rule="nonzero" group-id="2,19" node-id="98" stroke="none" target-height="566.89996" target-width="254.60004" target-x="623.8" target-y="352.2"></path></g></g><g node-id="301"><path d="M 390.70 486.60 C 390.70 495.82 383.22 503.30 374.00 503.30 C 364.78 503.30 357.30 495.82 357.30 486.60 C 357.30 477.38 364.78 469.90 374.00 469.90 C 383.22 469.90 390.70 477.38 390.70 486.60 Z" fill="#ee9ca7" fill-rule="nonzero" group-id="3" node-id="104" stroke="none" target-height="33.399994" target-width="33.400024" target-x="357.3" target-y="469.9"></path></g><g node-id="302"><path d="M 661.90 486.60 C 661.90 495.82 654.42 503.30 645.20 503.30 C 635.98 503.30 628.50 495.82 628.50 486.60 C 628.50 477.38 635.98 469.90 645.20 469.90 C 654.42 469.90 661.90 477.38 661.90 486.60 Z" fill="#ee9ca7" fill-rule="nonzero" group-id="4" node-id="109" stroke="none" target-height="33.399994" target-width="33.400024" target-x="628.5" target-y="469.9"></path></g><g node-id="303"><path d="M 289.40 927.80 C 233.60 927.80 182.80 890.90 167.60 835.60 C 146.50 758.90 170.20 664.30 181.40 627.30 C 183.00 621.90 182.30 616.30 179.40 611.40 C 155.50 571.70 138.00 536.00 127.40 505.10 C 124.20 495.90 121.50 486.80 119.30 477.30 C 113.60 452.70 121.60 428.20 140.60 411.60 C 159.60 395.00 185.00 390.40 208.60 399.30 L 209.00 399.40 C 209.30 399.50 209.50 399.60 209.70 399.60 L 210.00 399.70 C 214.20 401.10 218.70 400.80 222.80 399.00 C 227.70 396.90 231.60 392.70 233.30 387.50 C 234.60 383.60 238.90 381.50 242.80 382.80 C 246.70 384.10 248.80 388.40 247.50 392.30 C 244.40 401.50 237.50 408.90 228.70 412.80 C 221.20 416.00 213.20 416.40 205.50 414.00 C 205.00 413.90 204.60 413.70 204.40 413.60 L 204.40 413.60 L 203.80 413.50 L 203.40 413.30 C 203.30 413.30 203.20 413.20 203.10 413.20 C 184.80 406.40 165.20 410.00 150.50 422.90 C 135.80 435.80 129.60 454.90 134.00 473.90 C 136.10 482.90 138.60 491.50 141.70 500.20 C 152.00 530.10 169.00 564.90 192.30 603.60 C 197.40 611.90 198.70 622.10 195.90 631.50 C 187.50 659.50 161.70 756.60 182.20 831.60 C 197.60 887.90 255.00 922.50 312.70 910.30 C 341.90 904.20 393.80 896.90 475.70 896.90 C 532.60 896.90 567.30 901.60 595.20 905.40 C 635.60 910.90 660.00 914.20 717.00 897.60 C 748.10 888.50 774.10 853.60 788.10 824.00 C 789.90 820.30 794.30 818.70 798.10 820.40 C 801.80 822.20 803.40 826.60 801.70 830.40 C 794.20 846.20 766.30 898.80 721.20 912.00 C 661.20 929.60 634.10 925.90 593.20 920.30 C 565.70 916.60 531.60 911.90 475.70 911.90 C 395.10 911.90 344.20 919.00 315.70 924.90 C 306.90 927.00 298.10 927.80 289.40 927.80 Z" fill="#565656" fill-rule="nonzero" group-id="5" node-id="114" stroke="none" target-height="548.1" target-width="689.80005" target-x="113.6" target-y="381.5"></path></g><g node-id="304"><path d="M 811.90 720.90 C 807.90 720.90 804.60 717.70 804.40 713.70 C 803.00 673.30 797.70 632.30 792.70 592.60 L 792.00 587.10 C 791.30 581.20 792.80 575.30 796.40 570.50 C 804.60 559.80 832.50 522.20 849.60 483.30 C 853.60 474.20 856.90 465.30 859.30 457.00 C 865.70 434.10 870.10 410.30 859.00 391.60 C 846.30 370.20 825.10 360.80 803.80 367.10 C 793.80 370.00 783.20 374.60 773.40 380.40 C 768.80 383.10 763.40 383.50 758.40 381.60 C 753.40 379.70 749.60 375.60 748.00 370.50 C 747.60 369.30 747.30 368.20 746.90 367.10 C 746.50 366.00 746.20 364.80 745.80 363.70 C 728.80 309.50 708.70 265.00 686.10 231.50 C 660.10 192.90 630.40 168.50 597.90 158.90 C 573.30 151.70 555.40 133.60 539.60 117.70 C 517.10 95.10 502.20 81.60 479.60 89.70 C 471.60 92.60 462.70 98.20 453.20 106.50 C 427.10 129.10 399.40 150.70 370.90 170.80 C 364.90 175.00 358.80 178.90 352.90 182.70 C 332.30 195.90 312.80 208.40 301.80 230.70 C 300.00 234.40 295.50 235.90 291.80 234.10 C 288.10 232.30 286.60 227.80 288.40 224.10 C 301.20 198.10 323.40 183.90 344.80 170.20 C 350.60 166.50 356.60 162.70 362.30 158.60 C 390.40 138.80 417.70 117.50 443.40 95.30 C 454.40 85.70 464.60 79.30 474.60 75.70 C 507.30 64.00 529.20 86.00 550.30 107.20 C 565.50 122.50 581.30 138.40 602.20 144.50 C 668.40 164.10 721.60 236.30 760.10 359.30 C 760.50 360.50 760.80 361.60 761.20 362.70 C 761.60 363.80 761.90 365.00 762.30 366.10 C 762.60 367.10 763.30 367.50 763.80 367.70 C 764.30 367.90 765.00 368.00 765.80 367.50 C 776.70 361.10 788.40 356.00 799.60 352.80 C 827.40 344.60 855.80 356.80 871.90 384.00 C 886.00 407.60 880.80 436.30 873.80 461.20 C 871.20 470.20 867.70 479.70 863.40 489.40 C 845.60 529.90 816.80 568.70 808.40 579.70 C 807.20 581.30 806.60 583.40 806.90 585.40 L 807.60 590.90 C 812.70 630.90 818.00 672.30 819.50 713.40 C 819.60 717.50 816.40 721.00 812.30 721.20 C 812.00 720.90 811.90 720.90 811.90 720.90 Z" fill="#565656" fill-rule="nonzero" group-id="6" node-id="119" stroke="none" target-height="657.2" target-width="599.4" target-x="286.6" target-y="64"></path></g><g node-id="305"><g node-id="318"><path d="M 643.38 211.55 L 644.19 213.50 L 644.45 215.49 L 644.19 217.47 L 643.44 219.32 L 642.24 220.92 L 640.58 222.22 L 638.63 223.03 L 636.64 223.29 L 634.67 223.03 L 632.82 222.29 L 631.21 221.09 L 629.91 219.42 L 629.10 217.48 L 628.84 215.49 L 629.10 213.51 L 629.85 211.66 L 631.05 210.05 L 632.71 208.75 L 634.66 207.94 L 636.64 207.69 L 638.62 207.94 L 640.47 208.69 L 642.08 209.89 L 643.38 211.55 Z" fill="#ffffff" fill-rule="nonzero" group-id="7,20" node-id="126" stroke="none" target-height="15.599991" target-width="15.609985" target-x="628.84" target-y="207.69"></path></g></g><g node-id="306"><path d="M 620.10 205.70 C 618.10 205.70 616.00 204.90 614.50 203.20 C 586.60 172.30 541.70 171.40 541.30 171.40 C 537.20 171.40 533.80 168.00 533.90 163.80 C 534.00 159.60 537.30 156.30 541.50 156.40 C 543.60 156.40 593.30 157.20 625.70 193.20 C 628.50 196.30 628.20 201.00 625.20 203.80 C 623.70 205.00 621.90 205.70 620.10 205.70 Z" fill="#ffffff" fill-rule="nonzero" group-id="8" node-id="132" stroke="none" target-height="49.399994" target-width="94.70001" target-x="533.8" target-y="156.3"></path></g><g node-id="307"><path d="M 252.30 370.30 C 250.50 370.30 248.70 369.60 247.20 368.30 C 244.20 365.50 244.00 360.90 246.70 357.80 C 251.40 351.30 266.80 297.40 279.00 248.90 C 280.00 244.90 284.10 242.40 288.10 243.50 C 292.10 244.50 294.60 248.60 293.50 252.60 C 293.40 252.90 286.90 278.80 279.50 305.50 C 264.00 361.10 259.80 365.60 257.80 367.80 C 256.30 369.40 254.30 370.30 252.30 370.30 Z M 246.70 357.70 C 246.70 357.70 246.70 357.70 246.70 357.70 C 246.70 357.70 246.70 357.70 246.70 357.70 Z" fill="#565656" fill-rule="nonzero" group-id="9" node-id="137" stroke="none" target-height="127.899994" target-width="50.600006" target-x="244" target-y="242.4"></path></g><g node-id="308"><path d="M 802.70 815.00 C 801.80 815.00 800.80 814.80 799.90 814.50 C 796.10 813.00 794.20 808.60 795.70 804.70 C 804.50 782.70 804.80 732.60 804.80 732.10 C 804.80 728.00 808.20 724.60 812.30 724.60 C 812.30 724.60 812.30 724.60 812.30 724.60 C 816.40 724.60 819.80 728.00 819.80 732.10 C 819.80 734.30 819.60 785.60 809.70 810.30 C 808.40 813.20 805.60 815.00 802.70 815.00 Z" fill="#565656" fill-rule="nonzero" group-id="10" node-id="142" stroke="none" target-height="90.400024" target-width="25.599976" target-x="794.2" target-y="724.6"></path></g><g node-id="309"><path d="M 251.50 843.20 C 249.70 843.20 247.80 842.50 246.40 841.10 C 241.90 836.80 235.90 826.10 228.90 780.20 C 225.10 755.70 222.90 732.30 222.80 732.10 C 222.40 728.00 225.40 724.30 229.50 723.90 C 233.60 723.50 237.30 726.50 237.70 730.60 C 237.70 730.80 239.90 753.80 243.60 777.80 C 250.50 823.10 256.10 829.60 256.70 830.20 C 259.60 833.10 259.80 837.80 256.90 840.80 C 255.40 842.50 253.50 843.20 251.50 843.20 Z" fill="#ffffff" fill-rule="nonzero" group-id="11" node-id="147" stroke="none" target-height="119.70001" target-width="37.399994" target-x="222.4" target-y="723.5"></path></g><g node-id="310"><g node-id="319"><path d="M 237.32 709.71 L 237.46 711.82 L 237.07 713.79 L 236.19 715.58 L 234.89 717.09 L 233.23 718.22 L 231.24 718.92 L 229.14 719.06 L 227.17 718.66 L 225.38 717.79 L 223.87 716.48 L 222.74 714.83 L 222.04 712.84 L 221.90 710.74 L 222.29 708.77 L 223.17 706.98 L 224.48 705.47 L 226.13 704.33 L 228.12 703.64 L 230.22 703.49 L 232.19 703.89 L 233.98 704.77 L 235.49 706.07 L 236.63 707.72 L 237.32 709.71 Z" fill="#ffffff" fill-rule="nonzero" group-id="12,21" node-id="154" stroke="none" target-height="15.570007" target-width="15.560013" target-x="221.9" target-y="703.49"></path></g></g><g node-id="311"><path d="M 411.70 170.90 C 411.70 210.22 379.82 242.10 340.50 242.10 C 301.18 242.10 269.30 210.22 269.30 170.90 C 269.30 131.58 301.18 99.70 340.50 99.70 C 379.82 99.70 411.70 131.58 411.70 170.90 Z" fill="#8cd3b6" fill-rule="nonzero" group-id="13" node-id="160" stroke="none" target-height="142.40001" target-width="142.40002" target-x="269.3" target-y="99.7"></path><path d="M 340.50 249.60 C 297.10 249.60 261.80 214.30 261.80 170.90 C 261.80 127.50 297.10 92.20 340.50 92.20 C 383.90 92.20 419.20 127.50 419.20 170.90 C 419.20 214.30 383.90 249.60 340.50 249.60 Z M 340.50 107.20 C 305.40 107.20 276.80 135.80 276.80 170.90 C 276.80 206.00 305.40 234.60 340.50 234.60 C 375.60 234.60 404.20 206.00 404.20 170.90 C 404.20 135.70 375.60 107.20 340.50 107.20 Z" fill="#565656" fill-rule="nonzero" group-id="13" node-id="162" stroke="none" target-height="157.40001" target-width="157.40002" target-x="261.8" target-y="92.2"></path></g><g node-id="312"><path d="M 768.70 258.40 C 768.70 297.72 736.82 329.60 697.50 329.60 C 658.18 329.60 626.30 297.72 626.30 258.40 C 626.30 219.08 658.18 187.20 697.50 187.20 C 736.82 187.20 768.70 219.08 768.70 258.40 Z" fill="#8ec557" fill-rule="nonzero" group-id="14" node-id="167" stroke="none" target-height="142.40001" target-width="142.40002" target-x="626.3" target-y="187.2"></path><path d="M 697.50 337.10 C 654.10 337.10 618.80 301.80 618.80 258.40 C 618.80 215.00 654.10 179.70 697.50 179.70 C 740.90 179.70 776.20 215.00 776.20 258.40 C 776.20 301.80 740.90 337.10 697.50 337.10 Z M 697.50 194.70 C 662.40 194.70 633.80 223.30 633.80 258.40 C 633.80 293.50 662.40 322.10 697.50 322.10 C 732.60 322.10 761.20 293.50 761.20 258.40 C 761.20 223.20 732.60 194.70 697.50 194.70 Z" fill="#565656" fill-rule="nonzero" group-id="14" node-id="169" stroke="none" target-height="157.40001" target-width="157.40002" target-x="618.8" target-y="179.7"></path></g><g node-id="313"><path d="M 464.50 402.40 C 464.50 412.89 455.99 421.40 445.50 421.40 C 435.01 421.40 426.50 412.89 426.50 402.40 C 426.50 391.91 435.01 383.40 445.50 383.40 C 455.99 383.40 464.50 391.91 464.50 402.40 Z" fill="#565656" fill-rule="nonzero" group-id="15" node-id="174" stroke="none" target-height="38" target-width="38" target-x="426.5" target-y="383.4"></path></g><g node-id="314"><path d="M 592.20 402.40 C 592.20 412.89 583.69 421.40 573.20 421.40 C 562.71 421.40 554.20 412.89 554.20 402.40 C 554.20 391.91 562.71 383.40 573.20 383.40 C 583.69 383.40 592.20 391.91 592.20 402.40 Z" fill="#565656" fill-rule="nonzero" group-id="16" node-id="179" stroke="none" target-height="38" target-width="38" target-x="554.2" target-y="383.4"></path></g><g node-id="315"><g node-id="320"><path d="M 117.70 360.30 C 113.50 360.60 109.00 359.40 105.60 356.80 C 99.20 351.90 96.30 343.60 95.40 335.60 C 93.80 320.90 98.30 306.30 106.60 294.00 L 117.70 360.30 Z" fill="#f12711" fill-rule="nonzero" group-id="17,22" node-id="186" stroke="none" target-height="66.600006" target-width="23.899994" target-x="93.8" target-y="294"></path></g><g node-id="321"><path d="M 127.40 355.50 C 125.00 358.50 121.50 360.10 117.70 360.30 L 106.60 294.00 C 112.00 286.10 119.00 279.10 127.00 273.90 C 127.60 273.50 128.20 273.10 128.80 272.80 L 135.30 311.50 C 132.30 314.90 130.20 318.70 129.30 322.80 C 127.10 333.80 134.30 346.70 127.40 355.50 Z" fill="#ffffff" fill-rule="nonzero" group-id="17,23" node-id="191" stroke="none" target-height="87.5" target-width="28.700005" target-x="106.6" target-y="272.8"></path></g><g node-id="322"><path d="M 147.40 302.30 C 142.80 304.60 138.60 307.80 135.30 311.50 L 128.80 272.80 C 135.50 268.70 143.00 265.80 150.70 264.20 L 147.40 302.30 Z" fill="#f12711" fill-rule="nonzero" group-id="17,24" node-id="196" stroke="none" target-height="47.299988" target-width="21.899994" target-x="128.8" target-y="264.2"></path></g><g node-id="323"><path d="M 164.30 298.00 C 158.80 298.00 152.80 299.60 147.40 302.40 L 150.80 264.20 C 156.30 263.00 161.90 262.50 167.40 262.60 L 164.30 298.00 Z" fill="#ffffff" fill-rule="nonzero" group-id="17,25" node-id="201" stroke="none" target-height="39.899994" target-width="20" target-x="147.4" target-y="262.5"></path></g><g node-id="324"><path d="M 186.30 308.40 C 181.90 304.10 177.00 300.70 171.50 298.90 C 169.20 298.20 166.80 297.90 164.20 297.90 L 167.30 262.50 C 175.10 262.70 182.80 264.10 189.90 267.00 L 186.30 308.40 Z" fill="#f12711" fill-rule="nonzero" group-id="17,26" node-id="206" stroke="none" target-height="45.899994" target-width="25.699997" target-x="164.2" target-y="262.5"></path></g><g node-id="325"><path d="M 203.40 331.40 C 198.50 323.40 192.90 314.90 186.30 308.50 L 186.30 308.50 L 189.90 267.10 C 196.60 269.80 202.80 273.80 207.90 279.00 L 203.40 331.40 Z" fill="#ffffff" fill-rule="nonzero" group-id="17,27" node-id="211" stroke="none" target-height="64.29999" target-width="21.59999" target-x="186.3" target-y="267.1"></path></g><g node-id="326"><path d="M 222.70 363.80 C 217.40 354.20 213.50 347.50 211.40 344.30 C 208.90 340.50 206.30 336.10 203.40 331.50 L 203.40 331.50 L 208.00 279.00 L 208.00 279.00 C 215.60 286.70 220.60 296.60 225.60 306.20 C 226.20 307.40 226.80 308.60 227.40 309.80 L 222.70 363.80 Z" fill="#f12711" fill-rule="nonzero" group-id="17,28" node-id="216" stroke="none" target-height="84.79999" target-width="24" target-x="203.4" target-y="279"></path></g><g node-id="327"><path d="M 241.70 398.80 C 234.20 384.90 227.80 373.00 222.70 363.80 L 227.40 309.90 C 233.70 322.20 240.00 334.50 246.30 346.80 L 241.70 398.80 Z" fill="#ffffff" fill-rule="nonzero" group-id="17,29" node-id="221" stroke="none" target-height="88.899994" target-width="23.600006" target-x="222.7" target-y="309.9"></path></g><g node-id="328"><path d="M 260.70 434.40 C 253.90 421.50 247.50 409.60 241.70 398.80 L 246.30 346.70 C 252.60 359.00 258.90 371.20 265.20 383.50 L 265.20 383.50 L 260.70 434.40 Z" fill="#f12711" fill-rule="nonzero" group-id="17,30" node-id="226" stroke="none" target-height="87.69998" target-width="23.500015" target-x="241.7" target-y="346.7"></path></g><g node-id="329"><path d="M 279.60 470.30 C 273.00 457.70 266.60 445.70 260.60 434.40 L 265.10 383.50 C 271.40 395.80 277.70 408.00 284.00 420.30 L 279.60 470.30 Z" fill="#ffffff" fill-rule="nonzero" group-id="17,31" node-id="231" stroke="none" target-height="86.79999" target-width="23.399994" target-x="260.6" target-y="383.5"></path></g><g node-id="330"><path d="M 298.60 506.30 C 292.10 493.90 285.80 481.90 279.70 470.30 L 284.10 420.30 C 287.70 427.20 291.20 434.20 294.80 441.10 C 297.50 446.40 300.30 451.70 303.00 457.00 L 298.60 506.30 Z" fill="#f12711" fill-rule="nonzero" group-id="17,32" node-id="236" stroke="none" target-height="86" target-width="23.299988" target-x="279.7" target-y="420.3"></path></g><g node-id="331"><path d="M 317.50 542.50 C 311.10 530.30 304.80 518.20 298.60 506.30 L 302.90 457.00 C 309.20 469.20 315.50 481.50 321.80 493.70 L 321.80 493.70 L 317.50 542.50 Z" fill="#ffffff" fill-rule="nonzero" group-id="17,33" node-id="241" stroke="none" target-height="85.5" target-width="23.199982" target-x="298.6" target-y="457"></path></g><g node-id="332"><path d="M 336.40 578.70 C 330.10 566.60 323.70 554.40 317.50 542.50 L 321.80 493.80 C 328.10 506.00 334.40 518.30 340.70 530.50 L 336.40 578.70 Z" fill="#f12711" fill-rule="nonzero" group-id="17,34" node-id="246" stroke="none" target-height="84.900024" target-width="23.200012" target-x="317.5" target-y="493.8"></path></g><g node-id="333"><path d="M 355.30 615.00 C 349.00 603.00 342.70 590.80 336.40 578.70 L 340.60 530.40 C 346.90 542.60 353.20 554.90 359.50 567.10 L 355.30 615.00 Z" fill="#ffffff" fill-rule="nonzero" group-id="17,35" node-id="251" stroke="none" target-height="84.599976" target-width="23.100006" target-x="336.4" target-y="530.4"></path></g><g node-id="334"><path d="M 374.20 651.40 C 368.00 639.50 361.70 627.30 355.30 615.00 L 355.30 615.00 L 359.50 567.10 C 365.80 579.30 372.10 591.60 378.40 603.80 L 374.20 651.40 Z" fill="#f12711" fill-rule="nonzero" group-id="17,36" node-id="256" stroke="none" target-height="84.30005" target-width="23.100006" target-x="355.3" target-y="567.1"></path></g><g node-id="335"><path d="M 393.10 687.80 C 387.00 676.00 380.70 663.80 374.20 651.40 L 378.40 603.90 C 384.70 616.10 391.00 628.40 397.30 640.60 L 393.10 687.80 Z" fill="#ffffff" fill-rule="nonzero" group-id="17,37" node-id="261" stroke="none" target-height="83.89996" target-width="23.099976" target-x="374.2" target-y="603.9"></path></g><g node-id="336"><path d="M 412.00 724.30 C 406.00 712.80 399.70 700.60 393.10 687.80 L 397.30 640.60 C 403.60 652.80 409.90 665.10 416.20 677.30 L 412.00 724.30 Z" fill="#f12711" fill-rule="nonzero" group-id="17,38" node-id="266" stroke="none" target-height="83.70001" target-width="23.100006" target-x="393.1" target-y="640.6"></path></g><g node-id="337"><path d="M 477.70 810.10 L 468.00 816.40 C 464.70 818.60 460.20 817.40 458.30 813.90 C 456.30 810.00 453.40 804.40 449.80 797.40 L 449.80 797.40 L 453.90 750.80 C 462.60 767.70 471.30 784.60 479.90 801.50 C 481.50 804.40 480.50 808.20 477.70 810.10 Z" fill="#ffffff" fill-rule="nonzero" group-id="17,39" node-id="271" stroke="none" target-height="67.79999" target-width="31.700012" target-x="449.8" target-y="750.8"></path></g><g node-id="338"><path d="M 449.80 797.30 C 444.80 787.60 438.40 775.20 430.90 760.70 L 435.00 714.00 C 441.30 726.20 447.60 738.50 453.90 750.70 L 453.90 750.70 L 449.80 797.30 Z" fill="#f12711" fill-rule="nonzero" group-id="17,40" node-id="276" stroke="none" target-height="83.29999" target-width="23" target-x="430.9" target-y="714"></path></g><g node-id="339"><path d="M 430.90 760.80 C 425.20 749.70 418.80 737.50 412.00 724.30 L 416.10 677.30 C 422.40 689.50 428.70 701.80 435.00 714.00 L 430.90 760.80 Z" fill="#ffffff" fill-rule="nonzero" group-id="17,41" node-id="281" stroke="none" target-height="83.5" target-width="23" target-x="412" target-y="677.3"></path></g><g node-id="340"><path d="M 464.30 825.00 C 463.10 825.00 461.90 824.80 460.70 824.50 C 456.80 823.50 453.50 820.80 451.70 817.30 C 428.70 772.70 226.10 380.30 205.20 348.30 C 203.40 345.60 201.60 342.60 199.70 339.50 C 191.70 326.30 181.70 310.00 169.40 306.10 C 163.90 304.40 155.80 306.00 148.80 310.10 C 142.30 313.90 137.80 319.20 136.80 324.30 C 136.10 327.50 136.70 331.40 137.20 335.60 C 138.20 343.00 139.40 352.30 133.40 360.00 C 125.40 370.30 110.20 369.60 101.10 362.60 C 91.90 355.50 88.90 344.30 88.00 336.20 C 85.20 310.50 99.30 282.90 123.00 267.40 C 136.50 258.60 153.00 254.20 169.40 254.90 C 186.80 255.70 202.40 262.30 213.40 273.50 C 221.90 282.10 227.40 293.00 232.30 302.60 C 255.90 348.90 279.20 394.20 301.40 437.40 L 486.60 798.00 C 489.90 804.50 487.80 812.40 481.70 816.40 L 472.00 822.70 C 469.80 824.20 467.00 825.00 464.30 825.00 Z M 164.40 290.50 C 167.70 290.50 170.90 290.90 173.80 291.90 C 191.60 297.40 203.20 316.50 212.50 331.80 C 214.30 334.80 216.10 337.70 217.70 340.20 C 238.60 372.00 426.10 735.10 464.60 809.80 L 473.00 804.30 L 288.00 444.50 C 265.80 401.30 242.50 355.90 218.90 309.70 C 214.30 300.70 209.50 291.30 202.70 284.30 C 185.70 267.00 154.30 265.20 131.20 280.20 C 112.10 292.60 100.70 314.60 102.90 334.80 C 103.40 339.10 104.90 346.80 110.20 350.90 C 113.70 353.60 119.40 353.60 121.50 350.90 C 123.50 348.30 123.10 344.20 122.30 337.70 C 121.60 332.70 120.90 327.00 122.10 321.40 C 124.00 312.10 131.00 303.30 141.20 297.30 C 148.60 292.80 156.80 290.50 164.40 290.50 Z" fill="#565656" fill-rule="nonzero" group-id="17,42" node-id="286" stroke="none" target-height="570.8" target-width="404.7" target-x="85.2" target-y="254.2"></path></g><path d="M 246.30 347.20 C 246.30 347.20 246.30 347.20 246.30 347.20 C 246.00 347.20 245.80 346.90 245.80 346.70 L 246.90 334.30 C 246.90 334.00 247.20 333.80 247.40 333.80 C 247.70 333.80 247.90 334.10 247.90 334.30 L 246.80 346.70 C 246.80 347.00 246.50 347.20 246.30 347.20 Z" fill="#565656" fill-rule="nonzero" group-id="17,43" node-id="291" stroke="none" target-height="13.400024" target-width="2.0999908" target-x="245.8" target-y="333.8"></path></g><path d="M 510.00 476.90 C 505.90 476.90 502.50 473.50 502.50 469.40 C 502.50 466.40 502.00 465.10 501.80 464.60 C 501.50 464.60 501.20 464.70 501.00 464.70 L 501.20 464.60 L 495.60 450.70 C 496.40 450.40 503.80 447.60 510.30 452.00 C 515.10 455.30 517.60 461.10 517.60 469.30 C 517.50 473.60 514.10 476.90 510.00 476.90 Z" fill="#565656" fill-rule="nonzero" group-id="18" node-id="297" stroke="none" target-height="29.299988" target-width="21.99997" target-x="495.6" target-y="447.6"></path></svg>